<svg xmlns="http://www.w3.org/2000/svg" width="116" height="24" viewBox="0 0 116 24">
    <defs>
        <linearGradient id="prefix__a" x1="12.285%" x2="87.742%" y1="73.775%" y2="26.331%">
            <stop offset="0%" stop-color="#1FADC3"/>
            <stop offset="70.72%" stop-color="#36B98F"/>
        </linearGradient>
        <linearGradient id="prefix__b" x1="47.881%" x2="59.926%" y1="38.082%" y2="13.982%">
            <stop offset="0%" stop-color="#123F06" stop-opacity="0"/>
            <stop offset="100%" stop-color="#123F06"/>
        </linearGradient>
        <linearGradient id="prefix__d" x1="15.45%" x2="74.311%" y1="24.157%" y2="72.02%">
            <stop offset="0%" stop-color="#9FDB57"/>
            <stop offset="100%" stop-color="#71CA5E"/>
        </linearGradient>
        <linearGradient id="prefix__e" x1="12.217%" x2="87.674%" y1="73.818%" y2="26.374%">
            <stop offset="0%" stop-color="#1FADC3"/>
            <stop offset="70.72%" stop-color="#36B98F"/>
        </linearGradient>
        <linearGradient id="prefix__g" x1="15.481%" x2="74.342%" y1="24.182%" y2="72.045%">
            <stop offset="0%" stop-color="#9FDB57"/>
            <stop offset="100%" stop-color="#71CA5E"/>
        </linearGradient>
        <radialGradient id="prefix__c" cx="-348.129%" cy="133.909%" r="497.59%" fx="-348.129%" fy="133.909%" gradientTransform="matrix(1 0 0 .875 0 .167)">
            <stop offset="41.85%" stop-color="#123F06" stop-opacity="0"/>
            <stop offset="100%" stop-color="#123F06"/>
        </radialGradient>
        <radialGradient id="prefix__f" cx="-347.288%" cy="133.909%" r="497.59%" fx="-347.288%" fy="133.909%" gradientTransform="matrix(1 0 0 .875 0 .167)">
            <stop offset="41.85%" stop-color="#123F06" stop-opacity="0"/>
            <stop offset="100%" stop-color="#123F06"/>
        </radialGradient>
    </defs>
    <g fill="none" fill-rule="evenodd">
        <g>
            <path fill="url(#prefix__a)" d="M.85 18.595l-.264-.226c-.643-.549-.756-1.55-.17-2.193l6.878-7.861c.549-.643 1.55-.756 2.193-.17l.264.227c.643.548.756 1.55.17 2.192l-6.878 7.861c-.549.643-1.512.718-2.193.17z" transform="translate(96.189)"/>
            <path fill="url(#prefix__b)" d="M6.369 9.676l-.133-.152-1.058 1.21.113.132c1.815 1.814 1.04 3.647.624 4.29l.151-.17c.246-.284.624-.718 1.02-1.19.416-.719 1.002-2.42-.717-4.12z" opacity=".4" transform="translate(96.189)"/>
            <path fill="url(#prefix__c)" d="M8.636 12.038l.284-.321c.019-.038.056-.076.075-.114-.302.34-.623.7-.926 1.058.227-.245.416-.453.567-.623z" opacity=".4" transform="translate(96.189)"/>
            <path fill="url(#prefix__d)" d="M9.96 8.56L3.08.7C2.532.056 1.53-.058.888.53L.624.755c-.643.548-.756 1.55-.17 2.192l5.801 6.576.132.152c1.72 1.72 1.134 3.42.7 4.138.34-.397.68-.794 1.001-1.153.303-.359.624-.718.926-1.058.303-.34.586-.661.775-.87.661-.642.756-1.53.17-2.172z" transform="translate(96.189)"/>
            <g>
                <path fill="url(#prefix__e)" d="M.888 18.595l-.264-.226c-.643-.549-.756-1.55-.17-2.193l6.878-7.861c.548-.643 1.55-.756 2.192-.17l.265.227c.642.548.756 1.55.17 2.192L3.08 18.425c-.548.643-1.511.718-2.192.17z" transform="translate(96.189) translate(8.693)"/>
                <path fill="url(#prefix__b)" d="M6.482 9.6l-.132-.151-1.059 1.21.114.132c1.814 1.814 1.04 3.647.623 4.29l.152-.17c.245-.284.623-.719 1.02-1.191.416-.718 1.002-2.42-.718-4.12z" opacity=".4" transform="translate(96.189) translate(8.693)"/>
                <path fill="url(#prefix__f)" d="M8.655 12.038l.284-.321c.018-.038.056-.076.075-.114-.302.34-.623.7-.926 1.058.227-.245.435-.453.567-.623z" opacity=".4" transform="translate(96.189) translate(8.693)"/>
                <path fill="url(#prefix__g)" d="M9.978 8.56L3.099.7C2.551.056 1.55-.058.907.53L.643.755C0 1.304-.113 2.306.473 2.948l5.801 6.576.132.152c1.72 1.72 1.134 3.42.7 4.138.34-.397.68-.794 1.001-1.153.302-.359.624-.718.926-1.058.302-.34.586-.661.775-.87.661-.642.756-1.53.17-2.172z" transform="translate(96.189) translate(8.693)"/>
            </g>
        </g>
        <path fill="#000" d="M30.539.076c1.795 0 3.382.396 4.705 1.152 1.342.794 2.362 1.909 3.08 3.326.719 1.437 1.078 3.137 1.078 5.084 0 2.097-.416 3.93-1.267 5.423-.831 1.512-2.04 2.608-3.609 3.308.813.264 1.474.869 2.022 1.757l.945 1.417c.189.322.302.624.302.945 0 .397-.15.737-.472.983-.321.246-.7.397-1.115.397-.321 0-.624-.076-.907-.227-.265-.151-.51-.378-.7-.661l-1.549-2.57c-.246-.416-.567-.719-.964-.908-.397-.189-.907-.302-1.55-.302-1.832 0-3.401-.397-4.743-1.153-1.341-.793-2.362-1.908-3.08-3.326-.718-1.455-1.077-3.156-1.077-5.083 0-1.947.378-3.629 1.077-5.084.718-1.436 1.757-2.532 3.08-3.326C27.137.435 28.705.076 30.54.076zm45.26.018c.453 0 .812.19 1.133.586l5.424 6.728L87.76.68c.32-.378.718-.567 1.171-.567.397 0 .756.152 1.077.473.322.321.473.661.473 1.115 0 .34-.132.699-.397 1.02l-6.028 7.351v7.352c0 .548-.151.963-.473 1.285-.321.32-.718.453-1.21.453-.51 0-.944-.151-1.265-.453-.322-.303-.473-.718-.473-1.285v-7.352l-5.99-7.37c-.265-.32-.397-.661-.397-1.02 0-.416.151-.794.472-1.115.322-.321.7-.473 1.077-.473zm-24.53.152c2.003 0 3.553.491 4.668 1.511 1.115.983 1.682 2.4 1.682 4.196 0 1.795-.567 3.212-1.682 4.214-1.115 1.02-2.665 1.512-4.668 1.512h-4.743v5.707c0 .548-.151.964-.472 1.266-.322.321-.737.472-1.267.472-.51-.018-.944-.17-1.228-.49-.321-.322-.472-.738-.472-1.267V1.852c0-.51.15-.907.453-1.19.303-.265.7-.416 1.21-.416h6.52zM16.403.094c.51 0 .964.152 1.266.473.322.321.473.718.473 1.228v15.572c0 .51-.151.945-.473 1.266-.321.321-.737.473-1.266.473-.491 0-.907-.152-1.228-.473-.321-.321-.473-.737-.473-1.266V1.795c0-.51.152-.907.473-1.228.321-.321.718-.473 1.228-.473zM66.444.076c.378 0 .718.094 1.04.264.32.19.566.454.736.813l7.352 15.741c.075.246.132.454.132.7 0 .397-.17.737-.491 1.04-.322.264-.7.415-1.134.415-.265 0-.548-.076-.794-.227-.246-.151-.454-.397-.586-.7l-1.606-3.552h-9.298l-1.606 3.553c-.151.321-.34.548-.586.699-.246.151-.51.227-.812.227-.397 0-.794-.151-1.115-.416-.34-.264-.492-.624-.492-1.04 0-.226.057-.472.151-.699l7.333-15.741c.15-.34.397-.624.737-.813.321-.189.661-.264 1.04-.264zM1.72.113c.51 0 .963.152 1.266.473.321.321.472.718.472 1.228v14.343h7.427c1.058 0 1.606.473 1.606 1.399s-.548 1.398-1.606 1.398h-9.26c-.51 0-.907-.15-1.19-.434-.265-.265-.416-.662-.416-1.153V1.814c0-.51.151-.907.472-1.228C.813.265 1.21.113 1.72.113zM30.5 2.76c-1.738 0-3.08.586-4.043 1.758-.964 1.19-1.455 2.853-1.455 5.083s.49 3.893 1.455 5.083c.963 1.191 2.324 1.777 4.044 1.777 1.72 0 3.061-.586 4.025-1.777.964-1.19 1.455-2.89 1.455-5.083 0-2.23-.491-3.893-1.455-5.083-.964-1.191-2.287-1.758-4.025-1.758zm35.944 1.304l-3.496 7.861h7.011l-3.515-7.861zM50.834 2.91h-4.308v6.142l4.309.019c2.343 0 3.534-1.04 3.534-3.08 0-2.041-1.191-3.08-3.534-3.08z"/>
    </g>
</svg>
