<?xml version="1.0" encoding="UTF-8"?>
<svg width="92px" height="28px" viewBox="0 0 92 28" version="1.1" xmlns="http://www.w3.org/2000/svg" xmlns:xlink="http://www.w3.org/1999/xlink">
    <!-- Generator: sketchtool 41.2 (35397) - http://www.bohemiancoding.com/sketch -->
    <title>597EFDFC-A414-4830-BD6B-B76803396F2D</title>
    <desc>Created with sketchtool.</desc>
    <defs></defs>
    <g id="Personal" stroke="none" stroke-width="1" fill="none" fill-rule="evenodd">
        <g id="Site_Personal" transform="translate(-228.000000, -3738.000000)">
            <g id="mc_sc_rgb" transform="translate(228.211462, 3738.000000)">
                <g id="Layer_1">
                    <g id="Group">
                        <g id="Shape">
                            <path d="M8.02747826,19.012 C7.55147826,18.710087 7.05356522,18.4763478 6.53495652,18.3095652 C6.01634783,18.1433913 5.474,18.0593913 4.90791304,18.0593913 C4.53782609,18.0593913 4.19878261,18.0977391 3.892,18.1744348 C3.5846087,18.2511304 3.32165217,18.361913 3.10191304,18.508 C2.88278261,18.6534783 2.71173913,18.8281739 2.59,19.0314783 C2.46826087,19.2353913 2.4073913,19.4642609 2.4073913,19.7186957 C2.4073913,19.9512174 2.46034783,20.1496522 2.56626087,20.314 C2.67217391,20.4783478 2.82434783,20.6171304 3.02278261,20.7303478 C3.22121739,20.8441739 3.46347826,20.937913 3.74895652,21.0127826 C4.03504348,21.0870435 4.35765217,21.1503478 4.7173913,21.2033043 L5.4873913,21.3061739 C5.93721739,21.3694783 6.37669565,21.4674783 6.8046087,21.6001739 C7.23313043,21.7322609 7.6153913,21.9173043 7.9513913,22.155913 C8.2873913,22.393913 8.55765217,22.6933913 8.76095652,23.0525217 C8.96486957,23.4122609 9.06652174,23.8493043 9.06652174,24.3624348 C9.06652174,24.9285217 8.94721739,25.4288696 8.70921739,25.8622609 C8.47121739,26.2962609 8.148,26.6614783 7.74078261,26.9573043 C7.33295652,27.2537391 6.86121739,27.4789565 6.32373913,27.6323478 C5.78626087,27.7863478 5.21652174,27.8624348 4.61269565,27.8624348 C4.23713043,27.8624348 3.84695652,27.8307826 3.44217391,27.7668696 C3.0373913,27.7035652 2.63747826,27.6098261 2.24365217,27.4850435 C1.84921739,27.3608696 1.47243478,27.2056522 1.11269565,27.0206087 C0.752956522,26.8349565 0.430347826,26.6182609 0.14426087,26.3693043 L1.1206087,24.9406957 C1.31113043,25.1153913 1.54,25.2773043 1.80721739,25.4252174 C2.07443478,25.5731304 2.36113043,25.7027826 2.66852174,25.8141739 C2.97530435,25.9255652 3.29426087,26.0113913 3.62478261,26.0722609 C3.95530435,26.1331304 4.28217391,26.1635652 4.6053913,26.1635652 C4.9706087,26.1635652 5.31026087,26.1270435 5.62495652,26.0521739 C5.93965217,25.977913 6.21356522,25.8695652 6.44669565,25.7271304 C6.67921739,25.584087 6.86304348,25.4112174 6.99817391,25.2073043 C7.13330435,25.0033913 7.20086957,24.7745217 7.20086957,24.5206957 C7.20086957,24.0866957 6.98782609,23.7561739 6.56173913,23.527913 C6.13565217,23.3002609 5.5153913,23.1310435 4.70034783,23.0202609 L3.8353913,22.9009565 C3.42269565,22.8425217 3.01913043,22.7475652 2.62469565,22.6154783 C2.23026087,22.4833913 1.87843478,22.2971304 1.56921739,22.056087 C1.2593913,21.8156522 1.01043478,21.5143478 0.822956522,21.1515652 C0.634869565,20.7893913 0.541130435,20.3486957 0.541130435,19.830087 C0.541130435,19.2743478 0.656173913,18.7806957 0.886869565,18.3497391 C1.11695652,17.9181739 1.43043478,17.556 1.82730435,17.2626087 C2.22417391,16.9686087 2.6886087,16.7452174 3.22,16.5918261 C3.752,16.4378261 4.31930435,16.3617391 4.92252174,16.3617391 C5.73208696,16.3617391 6.46313043,16.4688696 7.11686957,16.6831304 C7.7706087,16.8973913 8.37747826,17.1895652 8.93869565,17.5602609 L8.02747826,19.012 Z M14.0833913,19.8617391 C14.6123478,19.8617391 15.098087,19.9585217 15.54,20.1514783 C15.981913,20.3450435 16.359913,20.6171304 16.6752174,20.9689565 C16.989913,21.3207826 17.2358261,21.742 17.4135652,22.2313913 C17.5906957,22.7207826 17.6789565,23.261913 17.6789565,23.8547826 C17.6789565,23.9606957 17.6765217,24.066 17.6710435,24.171913 C17.6655652,24.2778261 17.6576522,24.3782609 17.6473043,24.4738261 L12.0278261,24.4738261 C12.0807826,24.8177391 12.1787826,25.1111304 12.3212174,25.3546087 C12.4642609,25.598087 12.6365217,25.7977391 12.8373913,25.9541739 C13.0388696,26.11 13.2634783,26.2256522 13.5124348,26.2993043 C13.7607826,26.3735652 14.020087,26.410087 14.2903478,26.410087 C14.6713913,26.410087 15.0536522,26.3406957 15.4371304,26.200087 C15.8206087,26.060087 16.1712174,25.8628696 16.4889565,25.6084348 L17.3143478,26.7911304 C16.8486957,27.188 16.3550435,27.4661739 15.834,27.6244348 C15.3123478,27.7833043 14.7633043,27.8630435 14.1868696,27.8630435 C13.6153043,27.8630435 13.0912174,27.7674783 12.6152174,27.5775652 C12.1392174,27.3870435 11.7289565,27.1167826 11.3850435,26.768 C11.0411304,26.4186087 10.773913,25.9973913 10.5833913,25.5055652 C10.3928696,25.0131304 10.2973043,24.465913 10.2973043,23.862087 C10.2973043,23.2692174 10.3898261,22.7268696 10.5754783,22.2350435 C10.7605217,21.7426087 11.0198261,21.3207826 11.3533913,20.9689565 C11.6869565,20.6171304 12.0844348,20.3450435 12.5482609,20.1514783 C13.0108696,19.9585217 13.5227826,19.8617391 14.0833913,19.8617391 Z M14.0517391,21.3378261 C13.7553043,21.3378261 13.4923478,21.3828696 13.2622609,21.4723478 C13.0321739,21.5624348 12.8337391,21.6908696 12.6669565,21.8576522 C12.5007826,22.0238261 12.3638261,22.2228696 12.2585217,22.4529565 C12.1526087,22.6830435 12.0783478,22.9356522 12.0363478,23.2107826 L15.9813043,23.2107826 C15.8912174,22.617913 15.6793913,22.1577391 15.3464348,21.8296522 C15.0122609,21.5021739 14.5806957,21.3378261 14.0517391,21.3378261 Z M22.8705217,19.8617391 C23.442087,19.8617391 23.9734783,19.9633913 24.465913,20.1673043 C24.9583478,20.3712174 25.3734783,20.6737391 25.7125217,21.076087 L24.6485217,22.2113043 C24.3788696,21.9574783 24.0982609,21.7626957 23.8073043,21.6281739 C23.5163478,21.4936522 23.1882609,21.426087 22.8230435,21.426087 C22.5053043,21.426087 22.2088696,21.4857391 21.9337391,21.6044348 C21.6586087,21.7231304 21.4206087,21.889913 21.2191304,22.1041739 C21.0176522,22.3184348 20.8606087,22.5753043 20.7467826,22.8741739 C20.6329565,23.1736522 20.5757391,23.5029565 20.5757391,23.862087 C20.5757391,24.2218261 20.6329565,24.5517391 20.7467826,24.8506087 C20.8606087,25.1494783 21.0182609,25.4063478 21.2191304,25.6206087 C21.42,25.8348696 21.658,26.0010435 21.9337391,26.1203478 C22.2088696,26.2396522 22.5053043,26.2986957 22.8230435,26.2986957 C23.1882609,26.2986957 23.5291304,26.2232174 23.8468696,26.0722609 C24.1646087,25.921913 24.4452174,25.7326087 24.688087,25.5049565 L25.711913,26.648087 C25.3625217,27.0498261 24.9449565,27.3529565 24.458,27.5568696 C23.9710435,27.7607826 23.442087,27.8624348 22.8705217,27.8624348 C22.2673043,27.8624348 21.7194783,27.7607826 21.2276522,27.5568696 C20.7358261,27.3529565 20.3146087,27.0723478 19.9658261,26.7156522 C19.6164348,26.3589565 19.3467826,25.9365217 19.1562609,25.4495652 C18.9657391,24.9632174 18.8701739,24.4336522 18.8701739,23.862087 C18.8701739,23.2905217 18.9657391,22.7615652 19.1562609,22.2746087 C19.3467826,21.7882609 19.6164348,21.3658261 19.9658261,21.0091304 C20.3152174,20.6518261 20.7358261,20.3718261 21.2276522,20.167913 C21.7188696,19.9633913 22.2673043,19.8617391 22.8705217,19.8617391 Z M34.2208696,24.4415652 C34.2208696,25.0447826 34.1204348,25.5633913 33.9195652,25.9967826 C33.718087,26.4307826 33.453913,26.7856522 33.1258261,27.0607826 C32.7977391,27.335913 32.4221739,27.538 31.9985217,27.6676522 C31.5748696,27.7973043 31.1408696,27.8624348 30.6965217,27.8624348 C30.2521739,27.8624348 29.8181739,27.7973043 29.3951304,27.6676522 C28.9714783,27.538 28.5946957,27.335913 28.2641739,27.0607826 C27.9336522,26.7856522 27.6688696,26.4307826 27.4704348,25.9967826 C27.272,25.5633913 27.1727826,25.0441739 27.1727826,24.4415652 L27.1727826,20.0601739 L28.8393913,20.0601739 L28.8393913,24.2906087 C28.8393913,24.6558261 28.8868696,24.9668696 28.9824348,25.2231304 C29.078,25.48 29.2088696,25.6875652 29.3756522,25.8470435 C29.5424348,26.0053043 29.7396522,26.1203478 29.9666957,26.1921739 C30.1943478,26.2633913 30.4378261,26.2993043 30.6965217,26.2993043 C30.9558261,26.2993043 31.1993043,26.2633913 31.4269565,26.1921739 C31.6546087,26.1209565 31.8518261,26.005913 32.018,25.8470435 C32.1847826,25.6881739 32.3156522,25.48 32.4106087,25.2231304 C32.5061739,24.9668696 32.5536522,24.6558261 32.5536522,24.2906087 L32.5536522,20.0601739 L34.2202609,20.0601739 L34.2202609,24.4415652 L34.2208696,24.4415652 Z M40.2767826,19.8617391 C40.5312174,19.8617391 40.7594783,19.8787826 40.9633913,19.9134783 C41.1673043,19.9475652 41.3645217,20.0023478 41.5550435,20.076 L41.1581739,21.7194783 C40.9834783,21.6293913 40.7795652,21.5606087 40.5470435,21.5125217 C40.313913,21.4644348 40.0972174,21.4413043 39.8963478,21.4413043 C39.6315652,21.4413043 39.3886957,21.4863478 39.1665217,21.5758261 C38.9443478,21.665913 38.7538261,21.798 38.5949565,21.9733043 C38.436087,22.148 38.311913,22.3616522 38.2218261,22.616087 C38.1317391,22.869913 38.0866957,23.1584348 38.0866957,23.4816522 L38.0866957,27.6646087 L36.428,27.6646087 L36.428,20.0607826 L38.0708696,20.0607826 L38.0708696,20.9178261 C38.3246957,20.5526087 38.64,20.2853913 39.0155652,20.1161739 C39.3905217,19.9463478 39.8111304,19.8617391 40.2767826,19.8617391 Z M45.8493913,19.8617391 C46.3783478,19.8617391 46.864087,19.9585217 47.306,20.1514783 C47.747913,20.3450435 48.125913,20.6171304 48.4412174,20.9689565 C48.755913,21.3207826 49.0018261,21.742 49.1795652,22.2313913 C49.356087,22.7207826 49.4449565,23.261913 49.4449565,23.8547826 C49.4449565,23.9606957 49.4425217,24.066 49.4376522,24.171913 C49.4321739,24.2778261 49.4242609,24.3782609 49.4133043,24.4738261 L43.7938261,24.4738261 C43.8467826,24.8177391 43.9447826,25.1111304 44.0872174,25.3546087 C44.2302609,25.598087 44.401913,25.7977391 44.6033913,25.9541739 C44.8048696,26.11 45.0294783,26.2256522 45.2784348,26.2993043 C45.5267826,26.3735652 45.786087,26.410087 46.0563478,26.410087 C46.4373913,26.410087 46.8196522,26.3406957 47.2031304,26.200087 C47.5872174,26.060087 47.9372174,25.8628696 48.2549565,25.6084348 L49.0803478,26.7911304 C48.6153043,27.188 48.1216522,27.4661739 47.6006087,27.6244348 C47.0789565,27.7833043 46.529913,27.8630435 45.9534783,27.8630435 C45.381913,27.8630435 44.8578261,27.7674783 44.3818261,27.5775652 C43.9058261,27.3870435 43.4955652,27.1167826 43.1516522,26.768 C42.8077391,26.4186087 42.5405217,25.9973913 42.35,25.5055652 C42.1594783,25.0131304 42.063913,24.465913 42.063913,23.862087 C42.063913,23.2692174 42.1564348,22.7268696 42.3414783,22.2350435 C42.5265217,21.7426087 42.7858261,21.3207826 43.1193913,20.9689565 C43.4529565,20.6171304 43.8510435,20.3450435 44.3136522,20.1514783 C44.7762609,19.9585217 45.2881739,19.8617391 45.8493913,19.8617391 Z M45.8171304,21.3378261 C45.5206957,21.3378261 45.2577391,21.3828696 45.0270435,21.4723478 C44.7969565,21.5624348 44.5985217,21.6908696 44.4317391,21.8576522 C44.2655652,22.0238261 44.1286087,22.2228696 44.0233043,22.4529565 C43.9173913,22.6830435 43.8431304,22.9356522 43.8011304,23.2107826 L47.7466957,23.2107826 C47.656,22.617913 47.4447826,22.1577391 47.1112174,21.8296522 C46.7782609,21.5021739 46.3466957,21.3378261 45.8171304,21.3378261 Z M56.6044348,16.3453043 C57.0962609,16.3453043 57.5728696,16.3982609 58.0330435,16.5041739 C58.4938261,16.610087 58.9223478,16.7634783 59.3186087,16.9649565 C59.7154783,17.1658261 60.0758261,17.4105217 60.3984348,17.6990435 C60.7210435,17.9875652 60.9913043,18.3113913 61.208,18.6711304 L59.7081739,19.6712174 C59.3691304,19.173913 58.9345217,18.781913 58.401913,18.4964348 C57.869913,18.2109565 57.2709565,18.067913 56.6044348,18.067913 C56.0377391,18.067913 55.5142609,18.165913 55.0321739,18.3613043 C54.5506957,18.5573043 54.1355652,18.8324348 53.7861739,19.1866957 C53.4373913,19.5415652 53.1634783,19.9676522 52.9650435,20.4649565 C52.7666087,20.9622609 52.6673913,21.510087 52.6673913,22.1078261 C52.6673913,22.7061739 52.7666087,23.254 52.9650435,23.7506957 C53.1634783,24.248 53.4373913,24.674087 53.7861739,25.0289565 C54.1355652,25.3838261 54.5506957,25.6583478 55.0321739,25.8543478 C55.5142609,26.0503478 56.0377391,26.1477391 56.6044348,26.1477391 C57.2654783,26.1477391 57.8595652,26.0077391 58.386087,25.7271304 C58.9132174,25.4465217 59.3508696,25.0551304 59.7002609,24.5523478 L61.1611304,25.6236522 C60.9225217,25.9724348 60.6437391,26.2846957 60.3235652,26.5598261 C60.0033913,26.8349565 59.6485217,27.0705217 59.2595652,27.2665217 C58.8706087,27.4625217 58.4524348,27.6122609 58.0056522,27.7151304 C57.5582609,27.818 57.0913913,27.8703478 56.6044348,27.8703478 C55.7522609,27.8703478 54.9688696,27.726087 54.2548696,27.4375652 C53.5402609,27.1496522 52.9266957,26.7485217 52.4135652,26.2353913 C51.8998261,25.7222609 51.5005217,25.1135652 51.2144348,24.409913 C50.9289565,23.7056522 50.785913,22.9386957 50.785913,22.1078261 C50.785913,21.2769565 50.9289565,20.51 51.2144348,19.8057391 C51.499913,19.102087 51.8998261,18.4933913 52.4135652,17.9802609 C52.9266957,17.4671304 53.5402609,17.0666087 54.2548696,16.778087 C54.9694783,16.4895652 55.7522609,16.3453043 56.6044348,16.3453043 Z M66.4074783,19.8617391 C66.9948696,19.8617391 67.5384348,19.9633913 68.0381739,20.1673043 C68.5385217,20.3712174 68.9713043,20.6518261 69.335913,21.0085217 C69.7011304,21.3652174 69.9866087,21.7876522 70.1935652,22.274 C70.399913,22.7609565 70.5027826,23.2905217 70.5027826,23.8614783 C70.5027826,24.4330435 70.399913,24.9626087 70.1935652,25.4489565 C69.9866087,25.935913 69.7011304,26.3583478 69.335913,26.7150435 C68.9706957,27.0723478 68.5385217,27.3523478 68.0381739,27.5562609 C67.5384348,27.7601739 66.9948696,27.8618261 66.4074783,27.8618261 C65.820087,27.8618261 65.275913,27.7601739 64.7761739,27.5562609 C64.2758261,27.3523478 63.8442609,27.0717391 63.482087,26.7150435 C63.1193043,26.3583478 62.8356522,25.935913 62.6286957,25.4489565 C62.4223478,24.9626087 62.3194783,24.4330435 62.3194783,23.8614783 C62.3194783,23.289913 62.4223478,22.7609565 62.6286957,22.274 C62.8356522,21.7876522 63.1193043,21.3652174 63.482087,21.0085217 C63.8442609,20.6512174 64.2758261,20.3712174 64.7761739,20.1673043 C65.275913,19.9633913 65.820087,19.8617391 66.4074783,19.8617391 Z M66.4074783,21.4254783 C66.0684348,21.4254783 65.7537391,21.4851304 65.4627826,21.6038261 C65.1718261,21.7225217 64.9204348,21.8893043 64.7092174,22.1035652 C64.4973913,22.3178261 64.3306087,22.5746957 64.2088696,22.8735652 C64.0871304,23.1730435 64.0262609,23.5023478 64.0262609,23.8614783 C64.0262609,24.2212174 64.0871304,24.5511304 64.2088696,24.85 C64.3312174,25.1488696 64.4973913,25.4057391 64.7092174,25.62 C64.9204348,25.8342609 65.1724348,26.0004348 65.4627826,26.1197391 C65.7543478,26.2390435 66.0684348,26.298087 66.4074783,26.298087 C66.745913,26.298087 67.0606087,26.2384348 67.3515652,26.1197391 C67.6425217,26.0004348 67.8951304,25.8342609 68.1093913,25.62 C68.3242609,25.4057391 68.4916522,25.1488696 68.614,24.85 C68.7357391,24.5511304 68.7966087,24.2212174 68.7966087,23.8614783 C68.7966087,23.5023478 68.7357391,23.1724348 68.614,22.8735652 C68.4916522,22.5746957 68.3242609,22.3178261 68.1093913,22.1035652 C67.8951304,21.8893043 67.6425217,21.7225217 67.3515652,21.6038261 C67.0606087,21.4851304 66.745913,21.4254783 66.4074783,21.4254783 Z M75.495913,19.8617391 C76.0413043,19.8617391 76.5093913,19.9633913 76.9007826,20.1673043 C77.2921739,20.3712174 77.6202609,20.642087 77.8856522,20.9811304 L77.8856522,16.233913 L79.5443478,16.233913 L79.5443478,27.664 L77.8856522,27.664 L77.8856522,26.7515652 C77.6208696,27.09 77.2927826,27.3602609 76.9007826,27.5611304 C76.5093913,27.762 76.0413043,27.8630435 75.495913,27.8630435 C74.9614783,27.8630435 74.4641739,27.7638261 74.004,27.5653913 C73.5432174,27.3669565 73.1414783,27.0906087 72.7975652,26.7357391 C72.4530435,26.3814783 72.1833913,25.9596522 71.988,25.4702609 C71.7913913,24.9808696 71.6946087,24.4446087 71.6946087,23.8626957 C71.6946087,23.2807826 71.792,22.7451304 71.988,22.2557391 C72.1833913,21.7663478 72.4530435,21.343913 72.7975652,20.9896522 C73.1414783,20.6353913 73.5432174,20.3590435 74.004,20.1606087 C74.4641739,19.9609565 74.9614783,19.8617391 75.495913,19.8617391 Z M75.6943478,21.4254783 C75.3346087,21.4254783 75.0132174,21.49 74.7295652,21.6196522 C74.4465217,21.749913 74.2073043,21.924 74.0113043,22.1437391 C73.8153043,22.3628696 73.6649565,22.6209565 73.5590435,22.9173913 C73.4531304,23.2138261 73.4001739,23.5285217 73.4001739,23.862087 C73.4001739,24.1956522 73.4531304,24.5103478 73.5590435,24.8067826 C73.6649565,25.1032174 73.815913,25.3613043 74.0113043,25.5804348 C74.2073043,25.7995652 74.445913,25.9742609 74.7295652,26.1045217 C75.0132174,26.2341739 75.334,26.2986957 75.6943478,26.2986957 C76.0382609,26.2986957 76.3505217,26.2366087 76.6311304,26.1124348 C76.9117391,25.9888696 77.1521739,25.8178261 77.3530435,25.6005217 C77.553913,25.3838261 77.7103478,25.1269565 77.8211304,24.8305217 C77.9325217,24.5346957 77.987913,24.2114783 77.987913,23.862087 C77.987913,23.5133043 77.931913,23.190087 77.8211304,22.8942609 C77.7097391,22.5978261 77.553913,22.3415652 77.3530435,22.1242609 C77.1521739,21.9069565 76.9111304,21.7365217 76.6311304,21.6117391 C76.3505217,21.4875652 76.0382609,21.4254783 75.6943478,21.4254783 Z M85.0688696,19.8617391 C85.5978261,19.8617391 86.0835652,19.9585217 86.5248696,20.1514783 C86.9667826,20.3450435 87.3453913,20.6171304 87.660087,20.9689565 C87.9747826,21.3207826 88.2206957,21.742 88.3984348,22.2313913 C88.5755652,22.7207826 88.6644348,23.261913 88.6644348,23.8547826 C88.6644348,23.9606957 88.6613913,24.066 88.6565217,24.171913 C88.6510435,24.2778261 88.6431304,24.3782609 88.6327826,24.4738261 L83.0133043,24.4738261 C83.0656522,24.8177391 83.1636522,25.1111304 83.3073043,25.3546087 C83.4503478,25.598087 83.6213913,25.7977391 83.8234783,25.9541739 C84.0243478,26.11 84.2489565,26.2256522 84.497913,26.2993043 C84.7468696,26.3735652 85.0061739,26.410087 85.2758261,26.410087 C85.6568696,26.410087 86.0391304,26.3406957 86.4226087,26.200087 C86.806087,26.060087 87.1566957,25.8628696 87.4744348,25.6084348 L88.2998261,26.7911304 C87.8341739,27.188 87.3405217,27.4661739 86.8194783,27.6244348 C86.2984348,27.7833043 85.7493913,27.8630435 85.1723478,27.8630435 C84.6007826,27.8630435 84.0773043,27.7674783 83.6006957,27.5775652 C83.1246957,27.3870435 82.7138261,27.1167826 82.369913,26.768 C82.026,26.4186087 81.7587826,25.9973913 81.5682609,25.5055652 C81.3777391,25.0131304 81.2827826,24.465913 81.2827826,23.862087 C81.2827826,23.2692174 81.3746957,22.7268696 81.5603478,22.2350435 C81.746,21.7426087 82.0046957,21.3207826 82.3382609,20.9689565 C82.6718261,20.6171304 83.0693043,20.3450435 83.5325217,20.1514783 C83.9963478,19.9585217 84.5082609,19.8617391 85.0688696,19.8617391 Z M89.4569565,27.664 L89.4569565,27.2817391 L89.6109565,27.2817391 L89.6109565,27.2038261 L89.2183478,27.2038261 L89.2183478,27.2817391 L89.3723478,27.2817391 L89.3723478,27.664 L89.4569565,27.664 Z M90.2196522,27.664 L90.2196522,27.2026087 L90.0991304,27.2026087 L89.9603478,27.5197391 L89.8215652,27.2026087 L89.7010435,27.2026087 L89.7010435,27.664 L89.7862609,27.664 L89.7862609,27.3158261 L89.915913,27.615913 L90.0041739,27.615913 L90.1338261,27.3152174 L90.1338261,27.664 L90.2196522,27.664 L90.2196522,27.664 Z M85.0372174,21.3378261 C84.7407826,21.3378261 84.4778261,21.3828696 84.2471304,21.4723478 C84.0170435,21.5624348 83.8186087,21.6908696 83.6518261,21.8576522 C83.4856522,22.0238261 83.3486957,22.2228696 83.2427826,22.4529565 C83.1368696,22.6830435 83.0632174,22.9356522 83.0206087,23.2107826 L86.9655652,23.2107826 C86.8754783,22.617913 86.6642609,22.1577391 86.3306957,21.8296522 C85.9977391,21.5021739 85.5661739,21.3378261 85.0372174,21.3378261 Z" fill="#F79E1B"></path>
                            <path d="M13.4893043,11.9852174 L11.6285217,11.9852174 L11.6285217,2.50052174 L8.26121739,10.8566957 L6.30182609,10.8566957 L2.93452174,2.5906087 L2.93452174,11.9846087 L1.07373913,11.9846087 L1.07373913,0.458347826 L3.93095652,0.458347826 L7.28182609,8.69156522 L10.6326957,0.458347826 L13.489913,0.458347826 L13.489913,11.9852174 L13.4893043,11.9852174 Z M23.2868696,11.9852174 L21.566087,11.9852174 L21.566087,11.0386957 C21.2915652,11.389913 20.9513043,11.669913 20.5453043,11.878087 C20.1393043,12.0868696 19.6529565,12.1915652 19.088087,12.1915652 C18.5335652,12.1915652 18.018,12.0886957 17.5401739,11.8829565 C17.0623478,11.6766087 16.6453913,11.389913 16.2886957,11.0222609 C15.932,10.6546087 15.652,10.2169565 15.4493043,9.70930435 C15.246,9.20165217 15.1443478,8.64591304 15.1443478,8.04208696 C15.1443478,7.43826087 15.246,6.88252174 15.4493043,6.37426087 C15.652,5.86721739 15.932,5.42895652 16.2886957,5.06130435 C16.6453913,4.69365217 17.0623478,4.40634783 17.5401739,4.2006087 C18.018,3.99486957 18.5335652,3.892 19.088087,3.892 C19.6535652,3.892 20.1393043,3.99791304 20.5453043,4.20913043 C20.9513043,4.42034783 21.2915652,4.70156522 21.566087,5.05278261 L21.566087,4.09773913 L23.2868696,4.09773913 L23.2868696,11.9852174 Z M19.2938261,5.51356522 C18.9206957,5.51356522 18.5871304,5.58113043 18.2937391,5.71504348 C18.0003478,5.84956522 17.7513913,6.03095652 17.5486957,6.2586087 C17.3453913,6.48686957 17.1889565,6.75347826 17.0793913,7.06147826 C16.9692174,7.36886957 16.9144348,7.69573913 16.9144348,8.04147826 C16.9144348,8.38721739 16.9692174,8.71347826 17.0793913,9.02086957 C17.1889565,9.32826087 17.3453913,9.59608696 17.5486957,9.82373913 C17.7513913,10.052 18.0003478,10.2327826 18.2937391,10.3673043 C18.5871304,10.5012174 18.9206957,10.5687826 19.2938261,10.5687826 C19.6505217,10.5687826 19.9743478,10.5042609 20.2653043,10.3752174 C20.5562609,10.2461739 20.8058261,10.0696522 21.0146087,9.84443478 C21.2227826,9.61921739 21.3846957,9.35321739 21.5003478,9.04582609 C21.6153913,8.73843478 21.6732174,8.40365217 21.6732174,8.04147826 C21.6732174,7.67869565 21.6153913,7.34391304 21.5003478,7.03652174 C21.3846957,6.72913043 21.2227826,6.46313043 21.0146087,6.23791304 C20.8058261,6.01330435 20.5562609,5.83617391 20.2653043,5.70713043 C19.9743478,5.57808696 19.6505217,5.51356522 19.2938261,5.51356522 Z M31.1901739,6.07356522 C31.0696522,6.00295652 30.9211304,5.92686957 30.7458261,5.84713043 C30.569913,5.7673913 30.3751304,5.69495652 30.1614783,5.6286087 C29.9472174,5.56286957 29.7207826,5.50808696 29.4821739,5.46365217 C29.2429565,5.41982609 29.0006957,5.39791304 28.7535652,5.39791304 C28.2812174,5.39791304 27.9153913,5.48434783 27.6542609,5.65721739 C27.3937391,5.83008696 27.2634783,6.05713043 27.2634783,6.33652174 C27.2634783,6.47347826 27.2975652,6.58852174 27.3663478,6.68226087 C27.4351304,6.776 27.5270435,6.85269565 27.642087,6.91295652 C27.7577391,6.97321739 27.8946957,7.02130435 28.0535652,7.05721739 C28.2130435,7.09313043 28.3828696,7.12478261 28.5642609,7.15156522 L29.3793043,7.27513043 C30.2412174,7.40113043 30.9132174,7.65252174 31.3965217,8.02808696 C31.8798261,8.40365217 32.1214783,8.92956522 32.1214783,9.6046087 C32.1214783,9.98321739 32.0405217,10.3307826 31.8786087,10.646087 C31.7166957,10.9613913 31.4835652,11.2334783 31.1786087,11.4611304 C30.8742609,11.6893913 30.498087,11.865913 30.0506957,11.9925217 C29.6033043,12.1185217 29.0968696,12.1812174 28.5313913,12.1812174 C28.328087,12.1812174 28.091913,12.1690435 27.8234783,12.1446957 C27.5544348,12.1197391 27.2689565,12.0704348 26.9670435,11.9967826 C26.6651304,11.9225217 26.3577391,11.8196522 26.0448696,11.6881739 C25.732,11.556087 25.4325217,11.3832174 25.1476522,11.1695652 L25.9462609,9.87669565 C26.0886957,9.98686957 26.243913,10.0891304 26.4113043,10.1853043 C26.5786957,10.2814783 26.768,10.3666957 26.9792174,10.4403478 C27.1904348,10.5146087 27.4241739,10.5742609 27.6792174,10.6174783 C27.9348696,10.6613043 28.224,10.6832174 28.5478261,10.6832174 C29.1406957,10.6832174 29.5874783,10.5967826 29.89,10.423913 C30.191913,10.2510435 30.3428696,10.016087 30.3428696,9.71965217 C30.3428696,9.49504348 30.2326957,9.3093913 30.0135652,9.16391304 C29.7938261,9.01904348 29.448087,8.91313043 28.9763478,8.8473913 L28.1527826,8.74026087 C27.2744348,8.61913043 26.6091304,8.36286957 26.1562609,7.97026087 C25.7033913,7.57826087 25.4769565,7.06330435 25.4769565,6.4266087 C25.4769565,6.03704348 25.5524348,5.68582609 25.7033913,5.37295652 C25.8543478,5.06008696 26.0710435,4.79530435 26.3534783,4.578 C26.6365217,4.36130435 26.978,4.19391304 27.3785217,4.07582609 C27.7790435,3.95773913 28.231913,3.89930435 28.7371304,3.89930435 C29.3573913,3.89930435 29.9417391,3.97173913 30.4907826,4.11782609 C31.0398261,4.26269565 31.520087,4.46721739 31.9315652,4.73078261 L31.1901739,6.07356522 Z M39.3576522,5.66147826 L36.336087,5.66147826 L36.336087,9.09513043 C36.336087,9.35808696 36.3689565,9.58330435 36.4346957,9.77017391 C36.5004348,9.95704348 36.589913,10.1092174 36.7025217,10.2273043 C36.8145217,10.3453913 36.9466087,10.4318261 37.0975652,10.4866087 C37.2485217,10.5413913 37.4116522,10.5687826 37.5875652,10.5687826 C37.8566087,10.5687826 38.1293043,10.5170435 38.4068696,10.4123478 C38.6844348,10.3082609 38.9406957,10.1822609 39.1768696,10.0343478 L39.8598261,11.4087826 C39.5414783,11.6230435 39.1835652,11.8074783 38.7854783,11.9602609 C38.3873913,12.1142609 37.9387826,12.1909565 37.4390435,12.1909565 C36.5442609,12.1909565 35.8485217,11.9426087 35.3518261,11.445913 C34.8551304,10.9492174 34.6067826,10.1767826 34.6067826,9.128 L34.6067826,5.66147826 L33.033913,5.66147826 L33.033913,4.09773913 L34.6067826,4.09773913 L34.6067826,1.70982609 L36.3354783,1.70982609 L36.3354783,4.09773913 L39.3570435,4.09773913 L39.3570435,5.66147826 L39.3576522,5.66147826 Z M44.6514783,3.8913913 C45.2005217,3.8913913 45.703913,3.99182609 46.1622609,4.19208696 C46.6206087,4.39234783 47.0132174,4.6753913 47.340087,5.04 C47.6663478,5.40521739 47.9213913,5.84165217 48.1058261,6.34869565 C48.2896522,6.85634783 48.3815652,7.41817391 48.3815652,8.03234783 C48.3815652,8.14252174 48.3785217,8.25208696 48.3730435,8.36165217 C48.3675652,8.47182609 48.3590435,8.57591304 48.3486957,8.67452174 L42.5192174,8.67452174 C42.574,9.03121739 42.6756522,9.33617391 42.8235652,9.58878261 C42.9714783,9.84078261 43.1498261,10.0483478 43.3586087,10.2102609 C43.5673913,10.3721739 43.8005217,10.492087 44.0586087,10.5681739 C44.3166957,10.6454783 44.5857391,10.6832174 44.8651304,10.6832174 C45.2601739,10.6832174 45.6570435,10.6107826 46.0551304,10.4653043 C46.4532174,10.3204348 46.8166087,10.115913 47.145913,9.85173913 L48.0023478,11.0782609 C47.5190435,11.4897391 47.0071304,11.7782609 46.4666087,11.9432174 C45.926087,12.1075652 45.3563478,12.1903478 44.7586087,12.1903478 C44.1657391,12.1903478 43.6221739,12.0911304 43.1285217,11.893913 C42.6342609,11.6966957 42.2087826,11.4166957 41.852087,11.0545217 C41.4953913,10.6917391 41.2178261,10.255913 41.0206087,9.74521739 C40.8233913,9.23513043 40.7241739,8.6666087 40.7241739,8.04147826 C40.7241739,7.42669565 40.8203478,6.86365217 41.012087,6.35295652 C41.2044348,5.84286957 41.4734783,5.40521739 41.8192174,5.04 C42.1649565,4.67478261 42.5776522,4.39234783 43.0585217,4.19208696 C43.5387826,3.99182609 44.0695652,3.8913913 44.6514783,3.8913913 Z M44.6186087,5.42347826 C44.3112174,5.42347826 44.037913,5.47034783 43.7993043,5.56347826 C43.5606957,5.6566087 43.3549565,5.78991304 43.182087,5.96278261 C43.0092174,6.13626087 42.8673913,6.3413913 42.7578261,6.5806087 C42.6476522,6.81921739 42.5715652,7.08156522 42.5271304,7.36643478 L46.6193913,7.36643478 C46.5262609,6.75226087 46.3065217,6.27443478 45.9607826,5.93356522 C45.6144348,5.59330435 45.1670435,5.42347826 44.6186087,5.42347826 Z M54.341913,3.8913913 C54.6054783,3.8913913 54.8428696,3.90904348 55.054087,3.94495652 C55.2653043,3.98086957 55.4698261,4.03686957 55.6670435,4.11356522 L55.2555652,5.81791304 C55.0747826,5.72478261 54.8635652,5.65295652 54.6213043,5.60365217 C54.3802609,5.55495652 54.1550435,5.53 53.9462609,5.53 C53.6717391,5.53 53.4191304,5.57686957 53.1884348,5.67 C52.9583478,5.76313043 52.7605217,5.90008696 52.5961739,6.08147826 C52.4312174,6.26226087 52.3027826,6.48443478 52.2090435,6.748 C52.115913,7.01095652 52.0690435,7.31043478 52.0690435,7.64521739 L52.0690435,11.984 L50.3482609,11.984 L50.3482609,4.09652174 L52.052,4.09652174 L52.052,4.98582609 C52.3155652,4.60721739 52.6424348,4.33026087 53.032,4.15434783 C53.4221739,3.97965217 53.8586087,3.8913913 54.341913,3.8913913 Z M60.2286087,3.8913913 C60.8214783,3.8913913 61.3735652,3.99730435 61.8836522,4.20852174 C62.3937391,4.41973913 62.8246957,4.73443478 63.175913,5.1513913 L62.0723478,6.32921739 C61.7923478,6.06565217 61.5026087,5.86417391 61.2006957,5.72417391 C60.8975652,5.58417391 60.557913,5.51417391 60.1793043,5.51417391 C59.8506087,5.51417391 59.5432174,5.57565217 59.2571304,5.69982609 C58.9716522,5.82278261 58.7245217,5.99565217 58.5163478,6.21843478 C58.3081739,6.4406087 58.1444348,6.7066087 58.0269565,7.01643478 C57.9082609,7.32686957 57.8498261,7.66834783 57.8498261,8.04208696 C57.8498261,8.41521739 57.9082609,8.75669565 58.0269565,9.06713043 C58.1444348,9.37695652 58.3081739,9.64295652 58.5163478,9.86573913 C58.7245217,10.087913 58.9716522,10.2607826 59.2571304,10.3837391 C59.5426087,10.5073043 59.85,10.5693913 60.1793043,10.5693913 C60.557913,10.5693913 60.9115652,10.4908696 61.2408696,10.3350435 C61.5701739,10.1786087 61.8617391,9.982 62.1137391,9.74582609 L63.175913,10.9315652 C62.8143478,11.3491304 62.3803478,11.6626087 61.8757391,11.8744348 C61.369913,12.0856522 60.822087,12.1915652 60.2286087,12.1915652 C59.6034783,12.1915652 59.0349565,12.0856522 58.5248696,11.8744348 C58.0141739,11.6632174 57.5777391,11.3722609 57.2155652,11.0021739 C56.8533913,10.6314783 56.5733913,10.1938261 56.3761739,9.6886087 C56.1789565,9.1833913 56.0797391,8.63495652 56.0797391,8.04208696 C56.0797391,7.44921739 56.1789565,6.90017391 56.3761739,6.39495652 C56.5733913,5.88973913 56.8533913,5.45208696 57.2155652,5.0813913 C57.5777391,4.71130435 58.0141739,4.42034783 58.5248696,4.20913043 C59.0349565,3.99730435 59.6028696,3.8913913 60.2286087,3.8913913 Z M72.3477391,11.9852174 L70.6269565,11.9852174 L70.6269565,11.0386957 C70.3524348,11.389913 70.0121739,11.669913 69.6061739,11.878087 C69.1995652,12.0868696 68.7144348,12.1915652 68.1489565,12.1915652 C67.5944348,12.1915652 67.0782609,12.0886957 66.6010435,11.8829565 C66.1238261,11.6766087 65.7062609,11.389913 65.3495652,11.0222609 C64.9928696,10.6546087 64.7128696,10.2169565 64.5095652,9.70930435 C64.3068696,9.20165217 64.2046087,8.64591304 64.2046087,8.04208696 C64.2046087,7.43826087 64.3068696,6.88252174 64.5095652,6.37426087 C64.7128696,5.86721739 64.9928696,5.42895652 65.3495652,5.06130435 C65.7062609,4.69365217 66.1232174,4.40634783 66.6010435,4.2006087 C67.0782609,3.99486957 67.5944348,3.892 68.1489565,3.892 C68.7144348,3.892 69.2001739,3.99791304 69.6061739,4.20913043 C70.0121739,4.42034783 70.3524348,4.70156522 70.6269565,5.05278261 L70.6269565,4.09773913 L72.3477391,4.09773913 L72.3477391,11.9852174 Z M68.3546957,5.51356522 C67.9815652,5.51356522 67.648,5.58113043 67.3546087,5.71504348 C67.0612174,5.84956522 66.8128696,6.03095652 66.6095652,6.2586087 C66.4068696,6.48686957 66.2504348,6.75347826 66.1402609,7.06147826 C66.0306957,7.36886957 65.9753043,7.69573913 65.9753043,8.04147826 C65.9753043,8.38721739 66.0306957,8.71347826 66.1402609,9.02086957 C66.2504348,9.32826087 66.4068696,9.59608696 66.6095652,9.82373913 C66.8128696,10.052 67.0612174,10.2327826 67.3546087,10.3673043 C67.6486087,10.5012174 67.9815652,10.5687826 68.3546957,10.5687826 C68.712,10.5687826 69.0352174,10.5042609 69.3267826,10.3752174 C69.6177391,10.2461739 69.8666957,10.0696522 70.076087,9.84443478 C70.2842609,9.61921739 70.4461739,9.35321739 70.5618261,9.04582609 C70.6774783,8.73843478 70.7353043,8.40365217 70.7353043,8.04147826 C70.7353043,7.67869565 70.6774783,7.34391304 70.5618261,7.03652174 C70.4467826,6.72913043 70.2848696,6.46313043 70.076087,6.23791304 C69.8673043,6.01330435 69.6177391,5.83617391 69.3267826,5.70713043 C69.0352174,5.57808696 68.7113913,5.51356522 68.3546957,5.51356522 Z M78.8766087,3.8913913 C79.1401739,3.8913913 79.3775652,3.90904348 79.5887826,3.94495652 C79.8,3.98086957 80.0045217,4.03686957 80.2023478,4.11356522 L79.7908696,5.81791304 C79.610087,5.72478261 79.3988696,5.65295652 79.1572174,5.60365217 C78.9155652,5.55495652 78.6903478,5.53 78.4815652,5.53 C78.2070435,5.53 77.9544348,5.57686957 77.7243478,5.67 C77.4936522,5.76313043 77.2958261,5.90008696 77.1314783,6.08147826 C76.9665217,6.26226087 76.8374783,6.48443478 76.7443478,6.748 C76.6512174,7.01095652 76.6043478,7.31043478 76.6043478,7.64521739 L76.6043478,11.984 L74.8835652,11.984 L74.8835652,4.09652174 L76.587913,4.09652174 L76.587913,4.98582609 C76.8508696,4.60721739 77.1777391,4.33026087 77.5673043,4.15434783 C77.9574783,3.97965217 78.393913,3.8913913 78.8766087,3.8913913 Z M84.5246957,3.8913913 C85.0901739,3.8913913 85.5753043,3.99730435 85.981913,4.20852174 C86.387913,4.41973913 86.7281739,4.70095652 87.0026957,5.05217391 L87.0026957,0.129043478 L88.7234783,0.129043478 L88.7234783,11.9846087 L87.0026957,11.9846087 L87.0026957,11.038087 C86.7281739,11.3893043 86.387913,11.6693043 85.981913,11.8774783 C85.5753043,12.0862609 85.0901739,12.1909565 84.5246957,12.1909565 C83.9701739,12.1909565 83.454,12.088087 82.9767826,11.8823478 C82.4995652,11.676 82.082,11.3893043 81.7253043,11.0216522 C81.368,10.654 81.0886087,10.2163478 80.8853043,9.70869565 C80.6826087,9.20104348 80.5809565,8.64530435 80.5809565,8.04147826 C80.5809565,7.43765217 80.6826087,6.88191304 80.8853043,6.37365217 C81.0886087,5.8666087 81.3686087,5.42834783 81.7253043,5.06069565 C82.082,4.69304348 82.4989565,4.40573913 82.9767826,4.2 C83.4546087,3.99486957 83.9701739,3.8913913 84.5246957,3.8913913 Z M90.7333913,11.2553913 C90.804,11.2553913 90.8697391,11.2687826 90.9318261,11.2949565 C90.993913,11.3211304 91.0474783,11.3570435 91.0943478,11.4026957 C91.1406087,11.4483478 91.1771304,11.5013043 91.203913,11.5627826 C91.2306957,11.6236522 91.244087,11.6887826 91.244087,11.7575652 C91.244087,11.8263478 91.2306957,11.8914783 91.203913,11.9517391 C91.1771304,12.012 91.1406087,12.0655652 91.0943478,12.1112174 C91.048087,12.1568696 90.993913,12.1927826 90.9318261,12.2195652 C90.8697391,12.2463478 90.804,12.2597391 90.7333913,12.2597391 C90.6615652,12.2597391 90.594,12.2463478 90.5313043,12.2195652 C90.4686087,12.1927826 90.4144348,12.1568696 90.3681739,12.1112174 C90.321913,12.0655652 90.286,12.0126087 90.2592174,11.9517391 C90.2324348,11.8908696 90.2196522,11.8263478 90.2196522,11.7575652 C90.2196522,11.6887826 90.2330435,11.6236522 90.2592174,11.5627826 C90.286,11.501913 90.321913,11.4483478 90.3681739,11.4026957 C90.4138261,11.3570435 90.4686087,11.3211304 90.5313043,11.2949565 C90.594,11.2687826 90.6609565,11.2553913 90.7333913,11.2553913 Z M90.7333913,12.1477391 C90.7875652,12.1477391 90.838087,12.1373913 90.8849565,12.1173043 C90.9318261,12.0966087 90.9726087,12.0686087 91.007913,12.033913 C91.0432174,11.9986087 91.0706087,11.9572174 91.0906957,11.9097391 C91.1107826,11.8622609 91.1205217,11.8117391 91.1205217,11.7569565 C91.1205217,11.7027826 91.1107826,11.6522609 91.0906957,11.6047826 C91.0706087,11.5573043 91.0432174,11.515913 91.007913,11.4806087 C90.9726087,11.4453043 90.9318261,11.417913 90.8849565,11.3978261 C90.838087,11.3777391 90.7875652,11.368 90.7333913,11.368 C90.6786087,11.368 90.6268696,11.3777391 90.5787826,11.3978261 C90.5306957,11.417913 90.4893043,11.4453043 90.454,11.4806087 C90.4186957,11.515913 90.3913043,11.5573043 90.3712174,11.6047826 C90.3511304,11.6522609 90.3413913,11.7027826 90.3413913,11.7569565 C90.3413913,11.8111304 90.3511304,11.8616522 90.3712174,11.9097391 C90.3913043,11.9572174 90.4186957,11.9986087 90.454,12.033913 C90.4893043,12.0692174 90.5306957,12.0972174 90.5787826,12.1173043 C90.6268696,12.138 90.6786087,12.1477391 90.7333913,12.1477391 Z M90.7626087,11.5226087 C90.8222609,11.5226087 90.8685217,11.536 90.9007826,11.5627826 C90.9330435,11.5895652 90.9494783,11.6254783 90.9494783,11.6717391 C90.9494783,11.710087 90.9366957,11.7423478 90.9105217,11.7673043 C90.8843478,11.7922609 90.8478261,11.8074783 90.8003478,11.8135652 L90.9525217,11.9894783 L90.8332174,11.9894783 L90.692,11.8147826 L90.6463478,11.8147826 L90.6463478,11.9894783 L90.5465217,11.9894783 L90.5465217,11.5238261 L90.7626087,11.5238261 L90.7626087,11.5226087 Z M90.6475652,11.6096522 L90.6475652,11.7338261 L90.762,11.7338261 C90.7881739,11.7338261 90.8088696,11.7289565 90.8246957,11.7186087 C90.839913,11.7082609 90.8478261,11.6924348 90.8478261,11.6711304 C90.8478261,11.6504348 90.839913,11.6352174 90.8246957,11.6248696 C90.8088696,11.6145217 90.7881739,11.6096522 90.762,11.6096522 L90.6475652,11.6096522 L90.6475652,11.6096522 Z M84.7304348,5.51356522 C84.3573043,5.51356522 84.0237391,5.58113043 83.7303478,5.71504348 C83.4369565,5.84956522 83.1886087,6.03095652 82.9853043,6.2586087 C82.7826087,6.48686957 82.6261739,6.75347826 82.516,7.06147826 C82.4064348,7.36886957 82.3510435,7.69573913 82.3510435,8.04147826 C82.3510435,8.38721739 82.4064348,8.71347826 82.516,9.02086957 C82.6261739,9.32826087 82.7826087,9.59608696 82.9853043,9.82373913 C83.1886087,10.052 83.4369565,10.2327826 83.7303478,10.3673043 C84.0237391,10.5012174 84.3573043,10.5687826 84.7304348,10.5687826 C85.0877391,10.5687826 85.4109565,10.5042609 85.7025217,10.3752174 C85.9934783,10.2461739 86.2424348,10.0696522 86.4518261,9.84443478 C86.66,9.61921739 86.821913,9.35321739 86.9375652,9.04582609 C87.0532174,8.73843478 87.1110435,8.40365217 87.1110435,8.04147826 C87.1110435,7.67869565 87.0532174,7.34391304 86.9375652,7.03652174 C86.8225217,6.72913043 86.6606087,6.46313043 86.4518261,6.23791304 C86.2430435,6.01330435 85.9934783,5.83617391 85.7025217,5.70713043 C85.4109565,5.57808696 85.0877391,5.51356522 84.7304348,5.51356522 Z" fill="#EB001B"></path>
                        </g>
                    </g>
                </g>
            </g>
        </g>
    </g>
</svg>