<?xml version="1.0" encoding="UTF-8"?>
<svg width="56px" height="28px" viewBox="0 0 56 28" version="1.1" xmlns="http://www.w3.org/2000/svg" xmlns:xlink="http://www.w3.org/1999/xlink">
    <!-- Generator: sketchtool 41.2 (35397) - http://www.bohemiancoding.com/sketch -->
    <title>37D4FDE5-FA83-4BE4-BAA4-5DDA87DD6EEA</title>
    <desc>Created with sketchtool.</desc>
    <defs></defs>
    <g id="Personal" stroke="none" stroke-width="1" fill="none" fill-rule="evenodd">
        <g id="Site_Personal" transform="translate(-347.000000, -3738.000000)" fill="#3B477D">
            <g id="vbyvisa_blu_std" transform="translate(347.621542, 3738.000000)">
                <g id="Layer_1">
                    <g id="Group">
                        <g id="Shape">
                            <path d="M3.09057552,9.81152941 L0.158731166,0.788941176 L1.41218896,0.788941176 L2.8133054,5.23270588 C3.19885852,6.44988235 3.53191079,7.54847059 3.77308657,8.60588235 L3.80097765,8.60588235 C4.05363799,7.56164706 4.42770655,6.42352941 4.82638488,5.24588235 L6.34726888,0.788941176 L7.58760147,0.788941176 L4.37356505,9.81152941 L3.09057552,9.81152941 L3.09057552,9.81152941 Z"></path>
                            <path d="M8.19792385,6.78588235 C8.22581493,8.37858824 9.23809695,9.03411765 10.4128035,9.03411765 C11.2528171,9.03411765 11.7581378,8.88752941 12.199473,8.69976471 L12.3996325,9.54305882 C11.9861883,9.72917647 11.2790675,9.94494118 10.2520196,9.94494118 C8.26519057,9.94494118 7.07735883,8.63388235 7.07735883,6.67882353 C7.07735883,4.72376471 8.22417428,3.18541176 10.104361,3.18541176 C12.2109576,3.18541176 12.7720604,5.04658824 12.7720604,6.23741176 C12.7720604,6.47788235 12.7441693,6.66564706 12.7326848,6.78588235 L8.19792385,6.78588235 L8.19792385,6.78588235 Z M11.6383702,5.94258824 C11.6531361,5.19317647 11.3315683,4.02705882 10.0124845,4.02705882 C8.82465275,4.02705882 8.30620686,5.124 8.21268972,5.94258824 L11.6383702,5.94258824 Z"></path>
                            <path d="M13.692466,5.35458824 C13.692466,4.592 13.6793407,3.93647059 13.6399651,3.33364706 L14.667013,3.33364706 L14.7063886,4.60517647 L14.7588895,4.60517647 C15.0525661,3.73552941 15.7580463,3.18705882 16.545559,3.18705882 C16.6784518,3.18705882 16.7736096,3.20023529 16.8786113,3.22658824 L16.8786113,4.33835294 C16.7588437,4.31035294 16.6390762,4.29717647 16.4782923,4.29717647 C15.6530446,4.29717647 15.067332,4.92635294 14.9065481,5.81082353 C14.878657,5.97223529 14.8524066,6.15835294 14.8524066,6.35929412 L14.8524066,9.81317647 L13.692466,9.81317647 L13.692466,5.35458824 Z"></path>
                            <path d="M18.8802062,1.512 C18.8933314,1.91388235 18.5996548,2.23505882 18.1337098,2.23505882 C17.7202656,2.23505882 17.4265889,1.91388235 17.4265889,1.512 C17.4265889,1.09694118 17.7333908,0.775764706 18.1599602,0.775764706 C18.5996548,0.775764706 18.8802062,1.09858824 18.8802062,1.512 L18.8802062,1.512 Z M17.5726069,3.332 L18.7473134,3.332 L18.7473134,9.80988235 L17.5726069,9.80988235 L17.5726069,3.332 Z"></path>
                            <path d="M20.2813227,9.81152941 L20.2813227,4.22964706 L19.3740423,4.22964706 L19.3740423,3.332 L20.2813227,3.332 L20.2813227,3.024 C20.2813227,2.11482353 20.4814821,1.28470588 21.0278191,0.760941176 C21.4675137,0.332705882 22.0532263,0.159764706 22.601204,0.159764706 C23.0146482,0.159764706 23.3739509,0.253647059 23.6003608,0.347529412 L23.4395769,1.25670588 C23.2673085,1.176 23.0261327,1.11011765 22.6930805,1.11011765 C21.6939237,1.11011765 21.4396227,1.99294118 21.4396227,2.98282353 L21.4396227,3.33035294 L22.9982417,3.33035294 L22.9982417,4.228 L21.4396227,4.228 L21.4396227,9.80988235 L20.2813227,9.80988235 L20.2813227,9.81152941 Z"></path>
                            <path d="M25.4625003,1.512 C25.4772662,1.91388235 25.1819489,2.23505882 24.7160038,2.23505882 C24.3025596,2.23505882 24.008883,1.91388235 24.008883,1.512 C24.008883,1.09694118 24.3173255,0.775764706 24.7422543,0.775764706 C25.1819489,0.775764706 25.4625003,1.09858824 25.4625003,1.512 L25.4625003,1.512 Z M24.1565417,3.332 L25.3296075,3.332 L25.3296075,9.80988235 L24.1565417,9.80988235 L24.1565417,3.332 Z"></path>
                            <path d="M27.3968285,6.78588235 C27.4247196,8.37858824 28.4370016,9.03411765 29.6117081,9.03411765 C30.4517217,9.03411765 30.9570424,8.88752941 31.3983777,8.69976471 L31.5985372,9.54305882 C31.185093,9.72917647 30.4763315,9.94494118 29.4509243,9.94494118 C27.4640952,9.94494118 26.2762635,8.63388235 26.2762635,6.67882353 C26.2762635,4.72376471 27.4230789,3.18541176 29.3032656,3.18541176 C31.4098622,3.18541176 31.9693244,5.04658824 31.9693244,6.23741176 C31.9693244,6.47788235 31.943074,6.66564706 31.9299488,6.78588235 L27.3968285,6.78588235 L27.3968285,6.78588235 Z M30.8356342,5.94258824 C30.8487594,5.19317647 30.5288324,4.02705882 29.2097485,4.02705882 C28.0219168,4.02705882 27.5034709,5.124 27.4083131,5.94258824 L30.8356342,5.94258824 Z"></path>
                            <path d="M38.464664,0.308 L38.464664,8.13811765 C38.464664,8.71458824 38.4777892,9.37011765 38.5171648,9.81152941 L37.4638665,9.81152941 L37.409725,8.68658824 L37.381834,8.68658824 C37.0225313,9.408 36.2366592,9.95647059 35.1817202,9.95647059 C33.6231012,9.95647059 32.4221443,8.63223529 32.4221443,6.664 C32.409019,4.508 33.7428688,3.18376471 35.3162536,3.18376471 C36.3022852,3.18376471 36.9700304,3.65317647 37.2620664,4.17364706 L37.2899575,4.17364706 L37.2899575,0.306352941 L38.464664,0.306352941 L38.464664,0.308 Z M37.2899575,5.96894118 C37.2899575,5.82235294 37.2768323,5.62141176 37.2374566,5.47317647 C37.0651882,4.72376471 36.4236934,4.10776471 35.5443042,4.10776471 C34.3318627,4.10776471 33.6116166,5.17835294 33.6116166,6.61129412 C33.6116166,7.92235294 34.2514708,9.00776471 35.5180538,9.00776471 C36.3039259,9.00776471 37.0241719,8.48564706 37.2374566,7.60117647 C37.2768323,7.44141176 37.2899575,7.28 37.2899575,7.09223529 L37.2899575,5.96894118 L37.2899575,5.96894118 Z"></path>
                            <path d="M42.8091093,9.81152941 C42.8370004,9.36847059 42.8616102,8.71294118 42.8616102,8.13811765 L42.8616102,0.308 L44.0215509,0.308 L44.0215509,4.37623529 L44.0494419,4.37623529 C44.4628861,3.65482353 45.2093826,3.18541176 46.2495557,3.18541176 C47.8508316,3.18541176 48.9828812,4.52447059 48.969756,6.49105882 C48.969756,8.80682353 47.5161387,9.95647059 46.0756466,9.95647059 C45.1421159,9.95647059 44.3939788,9.59576471 43.9165492,8.73929412 L43.8771735,8.73929412 L43.823032,9.80988235 L42.8091093,9.80988235 L42.8091093,9.81152941 Z M44.0215509,7.21411765 C44.0215509,7.36070588 44.0494419,7.50894118 44.0756924,7.64235294 C44.3021023,8.45764706 44.981332,9.01929412 45.8344708,9.01929412 C47.0616782,9.01929412 47.7934088,8.01623529 47.7934088,6.53058824 C47.7934088,5.23270588 47.1273043,4.12094118 45.8738465,4.12094118 C45.0748492,4.12094118 44.3283527,4.66941176 44.0871769,5.56705882 C44.0592858,5.70047059 44.0199102,5.86188235 44.0199102,6.048 L44.0199102,7.21411765 L44.0215509,7.21411765 Z"></path>
                            <path d="M50.2494642,3.332 L51.6620652,7.15976471 C51.8097238,7.588 51.9705077,8.09694118 52.0755094,8.48564706 L52.1034005,8.48564706 C52.223168,8.09694118 52.3560608,7.60117647 52.5168447,7.13341176 L53.7965529,3.332 L55.0368855,3.332 L53.2764663,7.95035294 C52.4364527,10.1722353 51.8638653,11.3103529 51.0632274,12.0054118 C50.4889993,12.5143529 49.9164119,12.7152941 49.6227353,12.768 L49.3290587,11.7764706 C49.6227353,11.6825882 50.0082884,11.4948235 50.3561066,11.2 C50.6760336,10.9463529 51.0747119,10.4901176 51.3437788,9.88894118 C51.3962797,9.76870588 51.4372959,9.67482353 51.4372959,9.60894118 C51.4372959,9.54141176 51.4094049,9.44752941 51.356904,9.30094118 L48.969756,3.33035294 L50.2494642,3.33035294 L50.2494642,3.332 Z"></path>
                        </g>
                        <g transform="translate(7.072032, 13.940107)" id="Shape">
                            <path d="M12.5481077,0.292128342 L8.99117514,9.32130481 L7.55232371,1.64436364 C7.38661791,0.787893048 6.71887272,0.292128342 5.97729821,0.292128342 L0.161188398,0.292128342 L0.0824371226,0.675893048 C1.27519081,0.93942246 2.63200966,1.35612834 3.4539761,1.80412834 C3.95601548,2.08083422 4.10039281,2.3180107 4.26281732,2.97189305 L6.98958023,13.5591872 L10.6039356,13.5591872 L16.1411347,0.293775401 L12.5481077,0.293775401 L12.5481077,0.292128342 Z"></path>
                            <polygon points="17.6062365 0.292128342 14.7826752 13.5575401 18.2001524 13.5575401 21.0204324 0.292128342"></polygon>
                            <path d="M25.5076145,3.96836364 C25.519099,3.4940107 25.9702782,2.98671658 26.9579505,2.85495187 C27.4501459,2.79071658 28.7971209,2.74295187 30.3311301,3.44624599 L30.9299679,0.636363636 C30.1080015,0.334951872 29.0464999,0.0450695187 27.732338,0.0450695187 C24.3509551,0.0450695187 21.9769323,1.85024599 21.9556038,4.43283422 C21.9375567,6.34012834 23.6553189,7.40906952 24.9481523,8.04483422 C26.2803614,8.69212834 26.7282592,9.10718717 26.720056,9.69189305 C26.7134934,10.5829519 25.6585544,10.9716578 24.6774448,10.9881283 C22.9564013,11.0144813 21.9605258,10.5220107 21.1631691,10.1514225 L20.5462841,13.0601283 C21.3420001,13.4274225 22.8185866,13.7485989 24.3493145,13.7650695 C27.9341382,13.7650695 30.2835512,11.9796578 30.2966764,9.2257754 C30.3098016,5.72248128 25.4731608,5.53142246 25.5076145,3.96836364"></path>
                            <path d="M35.4040247,8.85848128 L37.220226,3.8777754 L38.242352,8.85848128 L35.4040247,8.85848128 Z M36.7017801,0.292128342 C36.0455195,0.292128342 35.4909793,0.67259893 35.2448815,1.26554011 L30.1178454,13.5575401 L33.7092317,13.5575401 L34.4229151,11.5761283 L38.7985328,11.5761283 L39.2086957,13.5575401 L42.3784346,13.5575401 L39.6221399,0.292128342 L36.7017801,0.292128342 L36.7017801,0.292128342 Z"></path>
                        </g>
                    </g>
                </g>
            </g>
        </g>
    </g>
</svg>