<?xml version="1.0" encoding="utf-8"?>
<!-- Hatsko Viacheslav Yamasters Ltd. 2022 for Vismight Ltd.  -->
<svg  version="1.0" id="Layer_1" xmlns="http://www.w3.org/2000/svg" xmlns:xlink="http://www.w3.org/1999/xlink" width="1319.578" height="221.472"
	 viewBox="0 0 1319.578 221.472" overflow="visible" enable-background="new 0 0 1319.578 221.472" xml:space="preserve">
<path d="M45.579,40.703l50.987,141.412l51.76-141.412h44.806l-66.436,180.264c0,0-16.914,0.048-40.629,0
	C62.35,220.92,57.371,200.71,57.371,200.71L0,40.703H45.579z"/>
<path d="M252.194,220.967h-43.016V40.703h43.016V220.967z"/>
<path fill="#25A8A3" d="M252.194,30.569h-43.016V0h43.016V30.569z"/>
<path fill="#0FA0DC" d="M760.29,30.569h-43.017V0h43.017V30.569z"/>
<path d="M432.122,76.024h-72.649c-9.962,0-16.531,1.416-19.708,4.244c-3.177,2.831-4.766,7.074-4.766,12.733
	c0,6.173,3.434,10.547,10.303,13.118c5.15,1.888,12.534,2.83,22.151,2.83c4.121,0,7.856-0.11,11.205-0.335
	c3.347-0.225,6.567-0.449,9.658-0.674c19.92,0,35.201,4.216,45.849,12.645c11.848,9.463,17.773,23.999,17.773,43.611
	c0,20.645-5.496,35.441-16.482,44.386c-10.129,8.259-25.58,12.386-46.354,12.386h-116.59l18.734-35.573h23.399h58
	c10.817,0,18.203-0.6,22.152-1.8c8.07-2.398,12.106-7.713,12.106-15.941c0-6.17-3.177-10.539-9.53-13.111
	c-4.809-1.885-11.85-2.829-21.122-2.829c-4.466,0-8.501,0.085-12.108,0.253c-3.607,0.169-7.041,0.337-10.303,0.504
	c-20.093,0-35.548-4.634-46.365-13.905c-11.507-9.958-17.258-24.895-17.258-44.81c0-20.773,6.952-35.28,20.858-43.522
	c10.815-6.351,27.382-9.528,49.7-9.528h93.217L432.122,76.024z"/>
<path d="M546.832,40.703l33.473,144.691l33.73-144.691h70.033v180.264h-39.61V75.015l-35.039,145.952c0,0-16.998,0-38.695,0
	s-24.364-16.162-24.364-16.162L516.924,70.6v150.367h-39.61V40.703H546.832z"/>
<path d="M760.143,220.967h-43.017V40.703h43.017V220.967z"/>
<path d="M936.619,79.557h-44.043c-20.263,0-34.687,3.436-43.272,10.307c-9.788,7.904-14.683,21.904-14.683,42.001
	c0,19.239,4.634,32.639,13.906,40.195c8.412,6.871,22.402,10.307,41.975,10.307h18.799v-32.546h-45.792l18.69-38.349h70.369v109.495
	l-57.416,0.505c-5.665,0-11.417-0.085-17.253-0.254c-5.836-0.17-11.673-0.34-17.507-0.509c-25.062,0-43.515-8.84-55.356-26.524
	c-10.301-15.279-15.449-36.396-15.449-63.35c0-10.644,1.028-21.118,3.091-31.418c2.06-10.301,5.406-19.399,10.042-27.297
	c7.382-12.875,17.683-21.63,30.902-26.266c9.784-3.434,23.517-5.15,41.2-5.15h82.919L936.619,79.557z"/>
<path d="M1028.547,40.703v69.507h63.578V40.703h43.017v180.264h-43.017V149.27l-63.578,0.046v71.651H985.53V40.703H1028.547z"/>
<path d="M1319.578,40.703l-20.861,35.574h-43.781v144.69h-43.016V76.277h-58.178V40.703H1319.578z"/>
</svg>
