<?xml version="1.0" encoding="utf-8"?>
<!-- Generator: Adobe Illustrator 18.0.0, SVG Export Plug-In . SVG Version: 6.00 Build 0)  -->
<!DOCTYPE svg PUBLIC "-//W3C//DTD SVG 1.1//EN" "http://www.w3.org/Graphics/SVG/1.1/DTD/svg11.dtd">
<svg version="1.1" id="Layer_1" xmlns="http://www.w3.org/2000/svg" xmlns:xlink="http://www.w3.org/1999/xlink" x="0px" y="0px"
	 viewBox="0 0 249.1 183.7" enable-background="new 0 0 249.1 183.7" xml:space="preserve">
<path fill="#D9C926" d="M-595.2-32.7"/>
<rect x="-0.9" y="171.9" fill="#293362" width="250.1" height="11.8"/>
<path fill="#F57E2C" d="M218.4,92.3H245c0.4-0.5,0.9-1,1.3-1.5c0.1-0.2,0.3-0.4,0.3-0.6c0-0.1,0-0.1-0.1-0.2h-29.3
	c-0.1,0.1-0.2,0.1-0.3,0.2c0.1,0.2,0.1,0.4,0.3,0.6C217.6,91.2,218.2,91.7,218.4,92.3z"/>
<path fill="#F57E2C" d="M219.2,75.8c0.5,0.4,0.6,0.9,0.6,1.6c-0.1,2.7,0,5.3,0,8c0,0.7-0.1,1.4,0,2c0.1,0.8-0.3,1.4-0.5,2h24.8
	c-0.1-0.6-0.2-1.3-0.3-1.9c0-0.6,0-1.3,0-1.9c0-1.7,0.1-3.4,0.1-5.2c0-1-0.1-2.1-0.2-3.1c0-0.5,0.1-1,0.5-1.3
	c0.4-0.4,0.8-0.8,1.1-1.2c0.3-0.4,0.2-0.7-0.2-0.8c-0.4-0.1-0.5-0.3-0.6-0.5H219c0,0.3-0.2,0.3-0.7,0.5c-0.1,0-0.2,0.1-0.4,0.2
	c0.1,0.3,0.2,0.6,0.4,0.8C218.6,75.2,218.9,75.5,219.2,75.8z M234.6,80.1c0-1.1,0.7-2,1.5-2c0.8,0,1.5,0.9,1.5,2v6.7h-3V80.1z
	 M226.1,80.1c0-1.1,0.7-2,1.5-2c0.8,0,1.5,0.9,1.5,2v6.7h-3V80.1z"/>
<path fill="#F57E2C" d="M244.5,72.8C244.5,72.7,244.5,72.7,244.5,72.8c0.1-0.7-0.1-0.8-0.7-0.8c-0.4,0-0.9,0-1.3,0
	c-0.2,0-0.5-0.1-0.6-0.2c-0.3-0.5-0.6-1-0.6-1.5c-0.1-1.7,0-3.3,0-5c0-0.5,0-1,0-1.5h-19.2c-0.1,0.2,0,0.6,0,0.8
	c0,0.2,0.2,0.4,0.2,0.6c0,1.7,0,3.3,0,5c0,1.2-0.8,2-2.1,1.9c-0.1,0-0.3,0-0.4,0c-0.7,0-0.8,0.1-0.8,0.8H244.5z"/>
<path fill="#F57E2C" d="M222,62.6c0.1,0.2,0.2,0.4,0.3,0.6h19.1c0-0.3,0.2-0.5,0.3-0.8c0.1-0.3,0.3-0.5,0.6-0.9
	c-0.4-0.2-0.6-0.2-0.9-0.4c-0.2-0.1-0.5-0.3-0.5-0.5c0-0.6-0.3-1.3,0.2-1.9c0.3-0.3,0.3-0.6,0-0.9c-0.4-0.3-0.4-0.7-0.4-1.1
	c-0.1-1.7-0.2-3.4-0.3-5.2c0-0.5,0-0.9,0-1.4c0.2-0.1,0.4-0.4,0.4-0.7c0-0.4-0.3-0.8-0.8-0.8c-0.4,0-0.8,0.3-0.8,0.8
	c0,0.3,0.2,0.6,0.4,0.7c-0.1,2-0.1,4-0.2,5.9c0,0.4,0,0.8-0.1,1.1c-0.1,0.4-0.4,0.7-0.5,0.9c0.1,0.7,0.3,1.3,0.3,1.8
	c0,0.3-0.2,0.6-0.6,0.5c-0.3-0.1-0.7-0.2-1-0.3c-0.3-0.1-0.4-0.3-0.3-0.6c0.1-0.1,0.1-0.3,0.2-0.4c0.6-1,0.5-1.8-0.2-2.6
	c-0.3-0.3-0.7-0.6-1-0.9c-0.6-0.6-1.1-1.2-1.7-1.8c-0.3-0.3-0.4-0.7-0.3-1.1c0.1-0.4,0.3-0.8,0.3-1.1c0-0.4-0.2-0.8-0.3-1.1
	c0,0,0-0.1,0-0.1c0-0.8,0-1.5,0-2.3c0-0.7-0.1-1.4,0.7-1.8c0.3-0.2,0.2-0.5-0.1-0.7c-0.2-0.2-0.7-0.4-0.7-0.6c0-0.3,0.3-0.6,0.5-0.9
	c0.1-0.1,0.2-0.2,0.2-0.4c0.5-1,0.3-1.7-0.7-2.3c-0.6-0.3-1.1-0.8-1.6-1.2c-0.1-0.1-0.2-0.3-0.3-0.5c-0.1-0.4,0-0.8,0.3-1.1
	c0.6-0.7,0.5-0.7,0-1.4c-0.2-0.3-0.5-0.7-0.5-1c0-1,0.1-1.9-0.1-2.9c0-0.1,0-0.2,0-0.3c0-1.7,0.1-3.4,0-5c0,0,0,0,0,0v-0.7
	c0.2-0.1,0.4-0.2,0.5-0.5h2.1v-0.5h-2.1c-0.1-0.2-0.3-0.4-0.5-0.5v-2.7h-0.5v2.7c-0.2,0.1-0.4,0.2-0.5,0.4H229v0.5h2.1
	c0.1,0.2,0.2,0.4,0.5,0.5v0.8c0,0.1,0,0.1-0.1,0.2c0,0.1,0,0.3,0,0.4c0,0.6,0.1,1.3-0.2,1.9c-0.1,0.1,0,0.4,0,0.6
	c0.3,0.9,0.3,1.9,0.1,2.8c-0.1,0.6-0.2,1.2,0,1.7c0.1,0.5,0,0.9-0.3,1.2c-0.2,0.2-0.3,0.4-0.5,0.6c-0.2,0.2-0.2,0.5,0,0.7
	c0.1,0.2,0.3,0.3,0.4,0.4c0.3,0.4,0.3,1.2-0.1,1.5c-0.6,0.5-1.1,0.9-1.8,1.3c-0.7,0.4-0.9,0.8-0.8,1.6c0.1,0.4,0.3,0.7,0.5,1.1
	c0.5,0.7,0.5,0.7-0.2,1.2c-0.4,0.3-0.5,0.5-0.1,0.9c0.2,0.2,0.5,0.4,0.5,0.7c0.1,1.3,0,2.6,0,3.9c0,0.1,0,0.1-0.1,0.2
	c-0.2,0.4-0.2,0.7,0.1,1.1c0.3,0.4,0.3,0.9,0,1.3c-0.4,0.8-1,1.6-1.8,2.1c-0.3,0.2-0.6,0.4-0.8,0.6c-0.9,0.8-1.4,2.2-0.5,3.3
	c0.4,0.5,0.3,0.7-0.4,0.8c-0.2,0.1-0.4,0.1-0.7,0.2c-0.4,0.1-0.6-0.1-0.6-0.5c0-0.4,0.1-0.9,0.2-1.3c0-0.2,0.1-0.6,0-0.7
	c-0.4-0.5-0.4-1-0.4-1.6c0-2.1-0.4-4.1-0.2-6.2c0.3-0.1,0.5-0.4,0.5-0.7c0-0.4-0.3-0.8-0.8-0.8c-0.4,0-0.8,0.3-0.8,0.8
	c0,0.3,0.2,0.5,0.4,0.7c0.1,0.8-0.1,1.6-0.1,2.3c0,1.2-0.1,2.5-0.1,3.7c0,0.4,0,0.8-0.1,1.1c-0.1,0.4-0.4,0.6-0.7,1
	c0.6,0.5,0.5,1.2,0.5,1.9c0,0.5-0.2,0.8-0.6,0.9c-0.8,0.3-0.9,0.4-0.3,1.1C221.8,62.4,221.9,62.5,222,62.6z M232.7,47.9
	c0-0.3,0.1-0.5,0.4-0.6c0.4,0,0.5,0.3,0.5,0.6c0,0.4,0,0.8,0,1.1h0c0,0.3,0,0.7,0,1c0,0.3-0.1,0.6-0.5,0.6c-0.3,0-0.5-0.3-0.5-0.6
	C232.7,49.3,232.7,48.6,232.7,47.9z M231.2,48.9c0-0.3,0-0.7,0-1c0-0.3,0.2-0.6,0.5-0.5c0.2,0,0.4,0.3,0.4,0.5
	c0.1,0.8,0.1,1.6,0,2.3c0,0.3-0.1,0.6-0.5,0.5c-0.2-0.1-0.4-0.3-0.4-0.5C231.2,49.7,231.3,49.3,231.2,48.9
	C231.3,48.9,231.3,48.9,231.2,48.9z M229.8,47.8c0.1-0.2,0.3-0.3,0.4-0.5c0.1,0.2,0.4,0.3,0.4,0.5c0.1,0.4,0,0.8,0,1.2c0,0,0,0,0,0
	c0,0.4,0,0.8,0,1.2c0,0.2-0.2,0.4-0.3,0.4c-0.2,0-0.4-0.2-0.5-0.4c-0.1-0.1,0-0.3,0-0.4c0-0.6,0-1.2,0-1.8
	C229.8,48,229.7,47.8,229.8,47.8z"/>
<path fill="#F57E2C" d="M247.7,97.6c-0.8,0-1.1,0.5-0.7,1.1c0.4,0.6,0.4,1.1,0.4,1.8c0,1.6,0,1.6-1.6,1.5c-0.7,0-0.8-0.1-0.8-0.8
	c0-2,0-4.1,0-6.1c0-0.7-0.1-1.4-0.1-2.2h-2.3h-18.4h-5.7c0,0.7-0.1,1.4-0.1,2.2c0,2,0,4.1,0,6.1c0,0.7-0.1,0.8-0.8,0.8
	c-1.6,0.1-1.6,0.1-1.6-1.5c0-0.6,0-1.2,0.4-1.8c0.4-0.6,0.1-1.1-0.7-1.1c-0.5,0-1,0-1.5,0v75.8c7.2,0,12.3,0,17.5,0
	c5.3,0,10.4,0,17.5,0V97.6C248.7,97.6,248.2,97.6,247.7,97.6z M234,116.5h-4.7V105c0-1.4,1-2.5,2.3-2.7c1.3,0.2,2.3,1.3,2.3,2.7
	V116.5z"/>
<path fill="#CD2776" d="M241.1,159.9c0-0.6-0.1-1.1-0.5-1.5c-0.2-0.2-0.3-0.4-0.3-0.6c0.1-0.9-0.4-1.3-1-1.8
	c-0.5-0.3-0.6-0.7-0.6-1.3c0-2.5,0.1-5,0-7.5c0-1.1,0.2-2.2-0.3-3.3c-0.1-0.1,0-0.3,0-0.4c0-1.8,0-3.7,0-5.5c0-0.6-0.1-1.2,0-1.7
	h-22v-0.6h22c0.1-0.4,0.3-0.8,0.6-1.1c-0.4-0.3-0.7-0.6-1-0.8c-1.4-1-2.8-2-4.2-3.1c-0.7-0.5-1.6-0.9-1.6-2c0,0,0-0.1-0.1-0.1
	c-0.8-0.5-0.8-1.3-0.5-2c0.1-0.4,0-0.8-0.3-1c-0.2-0.1-0.6-0.2-0.8-0.1c-0.4,0.2-0.4,0.6-0.3,1c0.1,0.4,0.2,0.9,0.1,1.3
	c0,0.2-0.3,0.6-0.4,0.6c-0.9,0-1.8,0.5-2.7,0c-0.6-0.3-1.3-0.5-2-0.8c-0.3,0.3-0.5,0.5-0.8,0.8c-0.2-0.1-0.4-0.3-0.6-0.4
	c-0.7-0.2-1.5-0.5-2.1-0.1c-0.5,0.3-0.9,0.5-1.4,0.3c-0.1-0.1-0.3,0-0.5,0c-0.5,0.1-1.1,0.1-1.6,0.2c-0.7,0.1-1.1-0.2-1.2-0.9
	c-0.1-0.7-0.3-1.3-0.5-2c0,0-0.1-0.1-0.1-0.1c-2.2,0.2-3.4-1.1-4.4-2.8c-0.1-0.2-0.1-0.4-0.1-0.6c0-3.1,0-6.2,0-9.3
	c0-0.5,0.1-0.9,0.6-1.1c0.3-0.1,0.5-0.3,0.3-0.8c-0.7,0-1.1-0.5-1.3-1.2c0-0.1-0.1-0.2-0.2-0.3c-0.3-0.4-0.3-0.9-0.1-1.4
	c0.4-0.9-0.1-1.7-0.4-2.5c0-0.1-0.2-0.1-0.4-0.1c-0.1,0.5-0.2,0.9-0.2,1.3c0,0.5,0.1,0.9,0.1,1.5c-0.3-0.1-0.5-0.1-0.6-0.3
	c-0.3-0.6-0.8-0.8-1.4-1c-1.2-0.4-2.3-2.9-2-4.1c0-0.1,0.1-0.1,0.1-0.2c0.5-0.7,0.4-1.4-0.2-2c-0.7-0.7-0.7-1.4-0.3-2.2
	c0.4-0.7,0.4-1.4,0.1-2.1c-0.3-0.7-0.2-0.8,0.4-1.3c0.2-0.2,0.4-0.4,0.6-0.6c-0.5-0.2-0.8-0.4-1.1-0.5c-0.6-0.3-1.2-0.7-1.8-1.1
	c-0.3-0.2-0.6-0.5-0.6-0.8c0-0.9-0.1-1.9,0.1-2.8c0.2-0.9,0-1.5-0.6-2c-0.2-0.2-0.4-0.4-0.6-0.6c-0.5-0.7-0.8-1.4-0.5-2.2
	c0.1-0.5,0.1-1,0-1.5c-0.1-0.4-0.1-0.7,0.1-1c0.3-0.4,0.2-0.8-0.1-1.1c-0.1-0.1-0.1-0.1-0.2-0.2v-1.5c0.2-0.1,0.4-0.2,0.5-0.5h1.6
	c0.1,0.1,0.2,0.2,0.4,0.2c0.3,0,0.5-0.2,0.5-0.5s-0.2-0.5-0.5-0.5c-0.1,0-0.3,0.1-0.4,0.2h-1.6c-0.1-0.2-0.3-0.4-0.5-0.5v-1.9
	c0.1-0.1,0.2-0.2,0.2-0.4c0-0.3-0.2-0.5-0.5-0.5c-0.3,0-0.5,0.2-0.5,0.5c0,0.2,0.1,0.3,0.2,0.4v1.9c-0.2,0.1-0.4,0.2-0.5,0.4h-1.7
	c-0.1-0.1-0.2-0.2-0.4-0.2c-0.3,0-0.5,0.2-0.5,0.5c0,0.3,0.2,0.5,0.5,0.5c0.2,0,0.3-0.1,0.4-0.2h1.7c0.1,0.2,0.3,0.4,0.5,0.5v0.9
	c-0.2,0.4-0.3,0.7-0.4,1c-0.1,0.2-0.1,0.5-0.1,0.6c0.4,0.6,0.3,1.2,0.1,1.8c-0.1,0.3-0.1,0.7,0.1,1c0.4,0.9,0,1.6-0.5,2.2
	c-0.3,0.5-0.8,0.8-1.1,1.3c-0.2,0.2-0.3,0.7-0.2,0.8c0.6,1,0.3,2,0.4,3.1c0,0.5-0.2,0.9-0.6,1.1c-0.7,0.4-1.5,0.9-2.3,1.3
	c-0.2,0.1-0.4,0.3-0.6,0.4c0.2,0.2,0.3,0.3,0.5,0.4c0.8,0.6,0.8,0.6,0.6,1.6c-0.2,0.7-0.2,1.3,0.1,1.9c0.3,0.9,0.3,1.7-0.4,2.4
	c-0.5,0.5-0.5,1-0.2,1.6c0.6,1.4,0,3.5-1.3,4.2c-0.8,0.4-1.6,0.9-2.3,1.6c0,0-0.1,0-0.3-0.1c0.2-1,0.6-2-0.4-2.8
	c-0.2,0.7-0.5,1.4-0.4,2.1c0,1.2,0,1.5-0.4,2.6c-0.1,0.2-0.2,0.4-0.2,0.5c-0.4,0.1-0.7,0.2-1.1,0.3c0.2,0.3,0.2,0.5,0.4,0.6
	c0.7,0.3,0.8,0.9,0.8,1.7c0,2.7,0,5.4,0,8.2c0,0.8,0.2,1.6-0.7,2c-0.1,0-0.1,0.2-0.2,0.3c-0.2,1-1,1.4-1.9,1.6
	c-0.4,0.1-0.8,0.3-1,0.7c-0.2,0.4-0.5,0.4-0.9,0.4c-0.9,0,1,2.4,0.1,2.5c-0.1,0-2.1,1.6-2.2,1.5l-0.9,43.2c16.6,0,32.7,0,44.4,0
	c3.9,0,7.8,0,11.7,0c0.7,0,0.9-0.1,0.9-0.8c0-0.1,0-0.3,0-0.4C241,168.1,241,164,241.1,159.9z M203.7,122h-3.2v-5.3
	c0-0.9,0.7-1.6,1.6-1.6c0.9,0,1.6,0.7,1.6,1.6V122z"/>
<path fill="none" d="M202.1,115.1c-0.9,0-1.6,0.7-1.6,1.6v5.3h3.2v-5.3C203.7,115.8,203,115.1,202.1,115.1z"/>
<path fill="none" d="M212.1,122.5c-0.1-0.2-0.1-0.4-0.1-0.6c0-3.1,0-6.2,0-9.3c0-0.5,0.1-0.9,0.6-1.1c0.3-0.1,0.5-0.3,0.3-0.8
	c-0.7,0-1.1-0.5-1.3-1.2c0-0.1-0.1-0.2-0.2-0.3c-0.3-0.4-0.3-0.9-0.1-1.4c0.4-0.9-0.1-1.7-0.4-2.5c0-0.1-0.2-0.1-0.4-0.1
	c-0.1,0.5-0.2,0.9-0.2,1.3c0,0.5,0.1,0.9,0.1,1.5c-0.3-0.1-0.5-0.1-0.6-0.3c-0.3-0.6-0.8-0.8-1.4-1c-1.2-0.4-2.3-2.9-2-4.1
	c0-0.1,0.1-0.1,0.1-0.2c0.5-0.7,0.4-1.4-0.2-2c-0.7-0.7-0.7-1.4-0.3-2.2c0.4-0.7,0.4-1.4,0.1-2.1c-0.3-0.7-0.2-0.8,0.4-1.3
	c0.2-0.2,0.4-0.4,0.6-0.6c-0.5-0.2-0.8-0.4-1.1-0.5c-0.6-0.3-1.2-0.7-1.8-1.1c-0.3-0.2-0.6-0.5-0.6-0.8c0-0.9-0.1-1.9,0.1-2.8
	c0.2-0.9,0-1.5-0.6-2c-0.2-0.2-0.4-0.4-0.6-0.6c-0.5-0.7-0.8-1.4-0.5-2.2c0.1-0.5,0.1-1,0-1.5c-0.1-0.4-0.1-0.7,0.1-1
	c0.3-0.4,0.2-0.8-0.1-1.1c-0.1-0.1-0.1-0.1-0.2-0.2v-1.5c0.2-0.1,0.4-0.2,0.5-0.5h1.6c0.1,0.1,0.2,0.2,0.4,0.2
	c0.3,0,0.5-0.2,0.5-0.5s-0.2-0.5-0.5-0.5c-0.1,0-0.3,0.1-0.4,0.2h-1.6c-0.1-0.2-0.3-0.4-0.5-0.5v-1.9c0.1-0.1,0.2-0.2,0.2-0.4
	c0-0.3-0.2-0.5-0.5-0.5c-0.3,0-0.5,0.2-0.5,0.5c0,0.2,0.1,0.3,0.2,0.4v1.9c-0.2,0.1-0.4,0.2-0.5,0.4h-1.7c-0.1-0.1-0.2-0.2-0.4-0.2
	c-0.3,0-0.5,0.2-0.5,0.5s0.2,0.5,0.5,0.5c0.2,0,0.3-0.1,0.4-0.2h1.7c0.1,0.2,0.3,0.4,0.5,0.5v0.9c-0.2,0.4-0.3,0.7-0.4,1
	c-0.1,0.2-0.1,0.5-0.1,0.6c0.4,0.6,0.3,1.2,0.1,1.8c-0.1,0.3-0.1,0.7,0.1,1c0.4,0.9,0,1.6-0.5,2.2c-0.3,0.5-0.8,0.8-1.1,1.3
	c-0.2,0.2-0.3,0.7-0.2,0.8c0.6,1,0.3,2,0.4,3.1c0,0.5-0.2,0.9-0.6,1.1c-0.7,0.4-1.5,0.9-2.3,1.3c-0.2,0.1-0.4,0.3-0.6,0.4
	c0.2,0.2,0.3,0.3,0.5,0.4c0.8,0.6,0.8,0.6,0.6,1.6c-0.2,0.7-0.2,1.3,0.1,1.9c0.3,0.9,0.3,1.7-0.4,2.4c-0.5,0.5-0.5,1-0.2,1.6
	c0.6,1.4,0,3.5-1.3,4.2c-0.8,0.4-1.6,0.9-2.3,1.6c0,0-0.1,0-0.3-0.1c0.2-1,0.6-2-0.4-2.8c-0.2,0.7-0.5,1.4-0.4,2.1
	c0,1.2,0,1.5-0.4,2.6c-0.1,0.2-0.2,0.4-0.2,0.5c-0.4,0.1-0.7,0.2-1.1,0.3c0.2,0.3,0.2,0.5,0.4,0.6c0.7,0.3,0.8,0.9,0.8,1.7
	c0,2.7,0,5.4,0,8.2c0,0.8,0.2,1.6-0.7,2c-0.1,0-0.1,0.2-0.2,0.3c-0.2,1-1,1.4-1.9,1.6c-0.4,0.1-0.8,0.3-1,0.7
	c-0.2,0.4-0.5,0.4-0.9,0.4c-0.9,0-1.8-0.1-2.7,0c-0.1,0-0.2,0-0.3,0v47.3c10.6,0,21,0,30.1,0v-48.6
	C213.3,124.3,212.7,123.4,212.1,122.5z M203.7,122h-3.2v-5.3c0-0.9,0.7-1.6,1.6-1.6c0.9,0,1.6,0.7,1.6,1.6V122z"/>
<path fill="#EF433F" d="M241,172.6c0-0.1,0-0.3,0-0.4c0-4.1,0-8.2,0-12.3c0-0.6-0.1-1.1-0.5-1.5c-0.2-0.2-0.3-0.4-0.3-0.6
	c0.1-0.9-0.4-1.3-1-1.8c-0.5-0.3-0.6-0.7-0.6-1.3c0-2.5,0.1-5,0-7.5c0-1.1,0.2-2.2-0.3-3.3c-0.1-0.1,0-0.3,0-0.4c0-1.8,0-3.7,0-5.5
	c0-0.6-0.1-1.2,0-1.7h-22v-0.6h22c0.1-0.4,0.3-0.8,0.6-1.1c-0.4-0.3-0.7-0.6-1-0.8c-1.4-1-2.8-2-4.2-3.1c-0.7-0.5-1.6-0.9-1.6-2
	c0,0,0-0.1-0.1-0.1c-0.8-0.5-0.8-1.3-0.5-2c0.1-0.4,0-0.8-0.3-1c-0.2-0.1-0.6-0.2-0.8-0.1c-0.4,0.2-0.4,0.6-0.3,1
	c0.1,0.4,0.2,0.9,0.1,1.3c0,0.2-0.3,0.6-0.4,0.6c-0.9,0-1.8,0.5-2.7,0c-0.6-0.3-1.3-0.5-2-0.8c-0.3,0.3-0.5,0.5-0.8,0.8
	c-0.2-0.1-0.4-0.3-0.6-0.4c-0.7-0.2-1.5-0.5-2.1-0.1c-0.5,0.3-0.9,0.5-1.4,0.3c-0.1-0.1-0.3,0-0.5,0c-0.5,0.1-1.1,0.1-1.6,0.2
	c-0.7,0.1-1.1-0.2-1.2-0.9c-0.1-0.7-0.3-1.3-0.5-2c0,0-0.1-0.1-0.1-0.1c-1,0.1-1.7-0.1-2.4-0.5v48.6c5.2,0,10.1,0,14.3,0
	c3.9,0,7.8,0,11.7,0c0,0,0,0,0,0C240.9,173.4,241,173.3,241,172.6z"/>
<path fill="#FFFFFF" d="M205.8,173.3h-7.5v-14.2c0-2.1,1.7-3.8,3.8-3.8h0c2.1,0,3.8,1.7,3.8,3.8V173.3z"/>
<path fill="#D9C926" d="M125.1,98.6c0.4-0.1,0.7-0.3,0.8-0.8c-0.1-0.1-0.2-0.2-0.3-0.2c-1.6-0.5-1.9-1.1-1.9-2.8
	c0.1-2.1,0-4.2,0-6.3c0-0.5,0-1,0.4-1.3c0.6-0.5,0.7-0.9,0.2-1.5c-0.1-0.1,0-0.4-0.1-0.7c-0.1-0.3-0.1-0.6-0.2-0.8
	c-0.3-0.4-0.3-0.8-0.1-1.2c0.5-1.2,0.3-1.8-0.7-2.4c-1,0.8-0.9,1.7-0.4,2.7c0,0.1,0.1,0.1,0.1,0.2c0,0.2,0,0.5-0.1,0.6
	c-0.1,0.1-0.5,0-0.6-0.1c-0.4-0.5-0.8-1-1.1-1.6c-0.2-0.4-0.1-0.8,0.2-1.1c0.5-0.5,1-1,1.5-1.5c0.6-0.6,0.6-1.1,0-1.7
	c-0.3-0.3-0.7-0.6-1.1-0.9c-0.4-0.3-0.7-0.5-0.6-1.1c0-0.2-0.2-0.6-0.4-0.7c-1-0.8-1.6-1.9-1.7-3.2c-0.1-1-0.4-2.1-0.6-3.1
	c-0.2-1-0.2-2-0.2-3c0-0.2,0.2-0.6,0.3-0.7c0.9-0.8,0.9-0.9-0.2-1.4c-0.1-0.1-0.3-0.1-0.3-0.2c-0.1-0.2-0.4-0.4-0.3-0.6
	c0.1-0.5-0.1-0.9-0.4-1.2c-0.7-1-0.8-2-0.3-3.1c0.2-0.4,0.2-0.8-0.1-1.2c-0.3-0.4-0.4-0.9-0.4-1.5c0-0.7,0.2-1.2,0.7-1.8
	c-0.3-0.4-0.6-0.7-0.9-1.1v-0.7c0.1,0,0.3-0.2,0.3-0.3h1c0.1,0.1,0.1,0.1,0.2,0.1c0.2,0,0.3-0.1,0.3-0.3c0-0.2-0.1-0.3-0.3-0.3
	c-0.1,0-0.2,0-0.2,0.1h-1c-0.1-0.1-0.2-0.2-0.3-0.3v-1.1c0.1,0,0.1-0.1,0.1-0.2c0-0.2-0.1-0.3-0.3-0.3c-0.2,0-0.3,0.1-0.3,0.3
	c0,0.1,0.1,0.2,0.1,0.2v1.1c-0.1,0-0.2,0.1-0.3,0.3h-1c-0.1-0.1-0.1-0.1-0.2-0.1c-0.2,0-0.3,0.1-0.3,0.3c0,0.2,0.1,0.3,0.3,0.3
	c0.1,0,0.2,0,0.2-0.1h1c0,0.1,0.2,0.2,0.3,0.3v0.5c-0.4,0.5-0.6,0.9-0.9,1.3c0.9,1.1,0.9,2.2,0.2,3.4c-0.3,0.4-0.2,0.7,0,1.1
	c0.4,0.5,0.4,1,0.3,1.6c-0.1,0.7-0.3,1.3-0.8,1.8c-0.2,0.2-0.3,0.5-0.2,0.7c0.2,0.7-0.2,0.9-0.8,1.1c-0.8,0.3-0.9,0.7-0.1,1.2
	c0.5,0.3,0.6,0.7,0.5,1.3c-0.1,0.7-0.1,1.4-0.2,2.1c0,0.6,0,1.2-0.5,1.6c-0.1,0.1-0.1,0.4-0.1,0.5c0.3,1.8-0.5,3.3-1.8,4.5
	c-0.3,0.3-0.5,0.5-0.4,0.9c0.1,0.4-0.2,0.6-0.5,0.8c-0.5,0.3-0.9,0.6-1.3,1c-0.6,0.6-0.5,1.2,0.1,1.8c0.3,0.3,0.5,0.6,0.8,0.9
	c0.2,0.2,0.3,0.4,0.6,0.5c0.4,0.2,0.5,0.6,0.3,1c-0.2,0.5-0.5,1-0.8,1.4c-0.2,0.3-0.5,0.7-0.9,0.4c-0.5-0.3-0.3-0.7-0.1-1.1
	c0.1-0.2,0.1-0.4,0.2-0.7c0.3-0.9-0.1-1.4-0.7-1.9c-0.8,0.5-0.9,1.2-0.6,2c0.1,0.5,0,1.5-0.1,2.1c-0.1,0.5-0.1,1-0.2,1.4
	c-0.1,0.4-0.1,0.7,0.3,1c0.5,0.4,0.6,1,0.6,1.6c0,0.4,0.1,0.8,0,1.3c0,0.2-0.1,0.4-0.2,0.6c-0.2-0.1-0.5-0.1-0.6-0.3
	c-0.4-0.4-0.7-0.9-1.1-1.3c-1-1.1-2.1-2.1-3.1-3.2c-0.2-0.2-0.5-0.4-0.7-0.6c-0.7,0.7-1.3,1.3-1.9,1.9c-0.6,0.6-1.2,1.4-1.9,2
	c-0.6,0.6-0.9,1.5-1.8,1.8c-0.5-0.5-0.2-1.1-0.2-1.5c0-0.5,0-1,0.1-1.4c0.2-0.5,0.6-0.8,0.7-1.1c-0.1-0.7-0.2-1.2-0.3-1.7
	c0-0.2-0.1-0.4-0.2-0.5c-0.4-0.5-0.4-1-0.1-1.6c0.1-0.2,0.1-0.4,0.1-0.6c0.2-0.8,0.1-1.1-0.8-1.6c-1,0.9-1,1.2-0.6,2.3
	c0.1,0.1,0.2,0.3,0.2,0.4c0,0.2,0,0.5-0.2,0.6c-0.1,0.1-0.5,0-0.6-0.1c-0.5-0.5-1-1.1-1.1-1.9c0-0.2,0-0.4,0.1-0.5
	c0.5-0.5,1-1.1,1.5-1.6c0.7-0.6,0.8-1.4,0.2-2c-0.4-0.4-0.8-0.6-1.2-0.9c-0.2-0.2-0.5-0.5-0.5-0.6c0.1-0.6-0.2-1-0.6-1.3
	c-1.2-1.1-1.6-2.5-1.7-4c0-0.4,0-0.8-0.3-1.2c-0.1-0.2-0.1-0.4-0.2-0.5c-0.1-1-0.1-2.1-0.2-3.1c0-0.4,0.1-0.7,0.4-1
	c0.8-0.6,0.7-0.9-0.2-1.3c-0.6-0.3-0.9-0.5-0.8-1.2c0-0.2-0.2-0.5-0.3-0.8c-0.5-1.1-1-2.1-0.3-3.3c0.2-0.3,0.2-0.7-0.1-1
	c-0.4-0.4-0.4-0.9-0.4-1.5c-0.1-0.8,0.2-1.4,0.7-1.9c-0.3-0.4-0.7-0.8-1-1.2v-0.7c0.1,0,0.3-0.2,0.3-0.3h1c0.1,0.1,0.1,0.1,0.2,0.1
	c0.2,0,0.3-0.1,0.3-0.3c0-0.2-0.1-0.3-0.3-0.3c-0.1,0-0.2,0-0.2,0.1h-1c-0.1-0.1-0.2-0.2-0.3-0.3v-1.1c0.1,0,0.1-0.1,0.1-0.2
	c0-0.2-0.1-0.3-0.3-0.3s-0.3,0.1-0.3,0.3c0,0.1,0.1,0.2,0.1,0.2v1.1c-0.1,0-0.2,0.1-0.3,0.3h-1c-0.1-0.1-0.1-0.1-0.2-0.1
	c-0.2,0-0.3,0.1-0.3,0.3s0.1,0.3,0.3,0.3c0.1,0,0.2,0,0.2-0.1h1c0,0.1,0.2,0.2,0.3,0.3v0.6c-0.3,0.5-0.6,0.8-0.8,1.2
	c0.8,1.2,1,2.3,0.1,3.4c-0.3,0.4-0.1,0.7,0.1,1.1c0.1,0.3,0.4,0.7,0.3,1c-0.1,0.7-0.3,1.4-0.6,2c-0.2,0.4-0.5,0.7-0.4,1.2
	c0.1,0.4-0.1,0.6-0.5,0.8c-0.2,0.1-0.4,0.1-0.5,0.2c-0.6,0.3-0.7,0.7-0.1,1c0.6,0.4,0.7,1,0.6,1.6c-0.1,0.5,0,1-0.1,1.5
	c-0.1,0.7,0.1,1.6-0.5,2.2c-0.1,0.1,0,0.3,0,0.5c0.2,1.5-0.2,2.8-1.3,3.9c-0.2,0.2-0.5,0.4-0.7,0.7c-0.1,0.2-0.3,0.5-0.2,0.7
	c0.2,0.6-0.2,0.8-0.6,1.1c-0.5,0.3-0.9,0.6-1.3,1c-0.4,0.4-0.4,0.9-0.1,1.3c0.6,0.7,1.2,1.2,1.7,1.9c0.2,0.2,0.3,0.5,0.3,0.6
	c-0.2,0.8-0.6,1.5-1.3,2c-0.1,0.1-0.5,0.2-0.6,0.1c-0.1-0.1-0.2-0.4-0.2-0.6c0-0.4,0.1-0.8,0.3-1.1c0.4-0.9-0.1-1.4-0.6-1.9
	c-0.7,0.5-1,1.1-0.7,1.9c0.2,0.6,0.1,1.5-0.1,2.1c-0.1,0.2,0,0.4-0.1,0.6c0,0.3,0,0.6-0.2,0.8c-0.2,0.4-0.1,0.7,0.2,1
	c0.4,0.3,0.6,0.7,0.6,1.3c0,1,0,2.1,0,3.1c0,0.6-0.2,0.8-0.8,0.8c-2.8,0-5.7,0-8.5,0c-0.5,0-0.9,0.1-1.2,0.4c-2,1.7-4,3.4-6,5.2
	c-0.4,0.3-0.7,0.7-0.6,1.2c0.1,0.5-0.1,0.9-0.6,1.2c-0.2,0.1-0.3,0.4-0.3,0.6c0,0.7,0,1.5,0,2.2c0,0.5,0.1,0.8,0.5,1
	c0.5,0.3,0.5,0.6,0,0.9c-0.4,0.2-0.5,0.5-0.5,1c0,0.7,0,1.4,0,2.1c0,0.5,0,0.7,0.5,0.9c0.6,0.3,0.6,0.5,0,0.9
	c-0.4,0.3-0.5,0.6-0.5,1c0,0.8,0,1.6-0.1,2.3c0,0.3,0,0.6,0.4,0.7c0.5,0.2,0.6,0.7,0.6,1.2c0,1.6,0,3.3,0.1,4.9c0,0.2,0,0.4,0,0.5
	c0,0.1,0,2.8,0,6.6c0.5,0,1,0,1.5,0c0.4-0.2,0.8-0.3,1.3-0.3c1.5-0.1,2.9-0.2,4.4,0c4.7,0.7,4.5,7.6,0.1,8.4c-0.2,1.4-0.4,2.7-0.7,4
	c1.4,4.3,1.1,9.1-0.4,13.3c-0.1,0.3-0.3,0.6-0.4,0.9h53.9c0,0,0-43.5-0.3-43.4c-0.4,0.2-0.6,0-0.6-0.4c0-0.3,0.1-0.6,0.1-1
	c0-2.2,0-4.5,0-6.7c0-0.7,0.2-1.4,0.1-2C124.4,99.1,124.5,98.8,125.1,98.6z M89.8,92c-1.1,0-2-0.9-2-2c0-1.1,0.9-2,2-2
	c1.1,0,2,0.9,2,2C91.8,91.1,90.9,92,89.8,92z M116.6,92c-1.1,0-2-0.9-2-2c0-1.1,0.9-2,2-2c1.1,0,2,0.9,2,2
	C118.6,91.1,117.7,92,116.6,92z"/>
<path fill="#D9C926" d="M64.4,122.6"/>
<path fill="#702A7D" d="M112,110.5h41.3c0.1-0.3,0.4-0.5,0.9-0.8c0.1,0,0.1-0.1,0.2-0.3c-0.3-0.2-0.5-0.5-0.8-0.6
	c-0.7-0.3-0.9-0.7-0.8-1.4c0.1-0.4,0.1-0.7,0.1-1.1c0-0.1,0-0.3,0-0.4h-40.6c0,0.3,0,0.5,0.1,0.8c0.1,0.3,0,0.6,0,1
	c0,0.5-0.2,0.8-0.7,1.1c-0.4,0.2-0.7,0.4-1.2,0.7c0.4,0.3,0.6,0.4,0.8,0.5C111.6,110,111.9,110.2,112,110.5z"/>
<path fill="#702A7D" d="M112.4,105.3h40.3c-0.3-0.5-0.2-1.1,0-1.6c0.2-0.9-0.1-1.5-1-1.8c-0.4-0.1-0.6-0.3-0.7-0.7
	c-0.8-2.2-2.1-4.1-3.5-6c-1.7-2.3-3.7-4.1-6.3-5.3c-1-0.4-2-0.7-3-1c-0.3-0.1-0.6-0.2-0.6-0.6c0-0.8-0.1-1.7-0.1-2.5
	c0-0.3-0.1-0.5-0.4-0.6c-0.4,0-0.4,0.3-0.4,0.5c0,0.3,0.2,0.7-0.2,0.9c-0.3-0.2-0.2-0.5-0.2-0.8c0-0.7,0.1-1.5,0.1-2.2
	c0-0.8,0.1-1.5,0.7-2.1c0.3-0.3,0.3-0.7-0.1-1c-0.6-0.6-0.6-0.7,0-1.3c0.4-0.4,0.3-0.7,0-1.1c-0.3-0.4-0.6-0.8-0.7-1.2
	c-0.2-1.3-0.9-2.2-2.1-2.9c-0.8-0.4-1.1-1.1-1.1-2c0-0.6,0.1-1.1,0.3-1.7c0.1-0.5,0-0.9-0.4-1.2v-0.9c0.2-0.1,0.4-0.2,0.5-0.4h1.5
	c0.1,0.1,0.2,0.2,0.4,0.2c0.2,0,0.4-0.2,0.4-0.4c0-0.2-0.2-0.4-0.4-0.4c-0.1,0-0.3,0.1-0.3,0.2h-1.5c-0.1-0.2-0.2-0.4-0.5-0.4v-1.7
	c0.1-0.1,0.2-0.2,0.2-0.4c0-0.2-0.2-0.4-0.4-0.4c-0.2,0-0.4,0.2-0.4,0.4c0,0.2,0.1,0.3,0.2,0.4v1.7c-0.2,0.1-0.4,0.2-0.4,0.4h-1.6
	c-0.1-0.1-0.2-0.2-0.3-0.2c-0.2,0-0.4,0.2-0.4,0.4s0.2,0.4,0.4,0.4c0.1,0,0.3-0.1,0.3-0.2h1.6c0.1,0.2,0.2,0.4,0.4,0.4v0.8
	c-0.3,0.4-0.4,0.8-0.3,1.4c0.1,0.5,0.2,1.1,0.2,1.6c0.1,1-0.2,1.8-1.2,2.3c-0.9,0.4-1.5,1.2-1.7,2.2c-0.1,0.6-0.4,1.2-0.8,1.6
	c-0.4,0.4-0.5,0.8,0,1.3c0.3,0.3,0.3,0.7,0,1.1c-0.5,0.6-0.5,0.7,0,1.3c0.3,0.4,0.5,0.8,0.5,1.3c0,1,0,2,0,3c0,0.2-0.1,0.5-0.1,0.7
	c-0.8-0.3,0.1-1.2-0.7-1.5c-0.4,0.2-0.2,0.6-0.2,0.9c0,0.3,0,0.6-0.1,0.8c-0.1,0.3-0.3,0.6-0.3,0.9c0,0.8,0,0.8-0.8,1
	c-2.5,0.7-4.8,1.8-6.7,3.7c-2.5,2.4-4.3,5.3-5.8,8.4c-0.2,0.5-0.4,0.9-1,0.9c-0.5,0-0.7,0.3-0.8,0.7c0,0.4,0,0.9,0,1.3
	c0,0.3,0.1,0.7,0,1C112.5,105.1,112.5,105.2,112.4,105.3z M132.7,81.9c0.8,0,1.4,1,1.4,2.2c0,1.2-0.6,2.2-1.4,2.2
	c-0.8,0-1.4-1-1.4-2.2C131.3,82.9,131.9,81.9,132.7,81.9z"/>
<path fill="#702A7D" d="M167.5,142v-15.3c-0.1,0-0.2,0-0.3,0c-0.4,0-0.8,0-1.2,0c-5.4,0-5.5,0-10.9,0c-0.4,0-0.8,0-1.3,0
	c-0.4,0-0.8-0.2-0.8-0.7c0.1-0.9-0.2-1.9,0.2-2.8c0.1-0.3,0.1-0.7-0.1-1c-0.3-0.5-0.3-1-0.3-1.5c0-2.1,0-4.2,0-6.3
	c0-0.3,0-0.6,0.1-0.7c0.6-0.7,0.5-1.4,0.3-2.3c0-0.1,0-0.2-0.1-0.3h-41.2c0,0.1,0,0.1,0,0.2c0,0.2-0.1,0.4-0.2,0.6
	c-0.2,0.5-0.2,0.9,0.1,1.3c0.3,0.4,0.4,0.9,0.4,1.5c0,2.1,0,4.1,0,6.2c0,0.3-0.1,0.7-0.2,1c-0.3,0.5-0.3,0.9-0.1,1.5
	c0.3,1.1,0.4,2.2-0.8,2.8c-0.1,0-0.1,0.1-0.1,0.1c-0.6,0.5-1.2,0.5-1.7-0.1c-0.3-0.4-0.7-0.5-1.2-0.5c-1,0-2,0-3,0
	c-0.6,0-1.3-0.1-1.7,0.6c-0.2,0.3-0.6,0.2-0.7-0.2c0-0.2,0-0.3,0-0.5c0-2.1,0.1-4.1,0.1-6.2c0-0.8-0.1-0.9-0.9-0.9
	c-1.2,0-2.5,0-3.7,0c-0.9,0-1,0.2-1,1c0.1,1.4,0.1,2.7,0.1,4.1c0,0.1,0,0.3,0,0.4c-0.2,0.2-0.3,0.4-0.5,0.5
	c-0.3,0.1-0.4-0.2-0.4-0.5c0-0.2,0-0.4,0-0.6c0-1.3,0-2.7,0-4c0-0.8-0.2-0.9-0.9-0.9c-0.6,0-1.2,0-1.8,0c-0.6,0-1.3-0.1-1.4,0.8
	c0,0.1-0.2,0.2-0.4,0.2c-0.1,0-0.3-0.2-0.3-0.3c-0.1-0.2,0-0.4,0-0.6c0.1-1.5,0.1-2.9,0.2-4.4c0-0.3,0-0.6-0.6-0.6
	c-0.1,0.2-0.2,0.4-0.2,0.7c0,1.4,0.1,2.8,0.1,4.3c0,0.3-0.1,0.6-0.2,0.9c-0.2,0.3-0.4,0.6-0.6,0.9c-0.3,0.3-1.8,0.7-1.8,0.7v39.8
	h89.9V142H167.5z M121.5,124H117v-7.4c0-1.2,1-2.2,2.2-2.2c1.2,0,2.2,1,2.2,2.2V124z M135.1,124h-4.5v-7.4c0-1.2,1-2.2,2.2-2.2
	c1.2,0,2.2,1,2.2,2.2V124z M147.5,124h-4.5v-7.4c0-1.2,1-2.2,2.2-2.2s2.2,1,2.2,2.2V124z"/>
<path fill="#D9C926" d="M116.5,107c-1.2,0-2.2,1-2.2,2.2v7.4h4.5v-7.4C118.7,108,117.7,107,116.5,107z"/>
<path fill="#CD2776" d="M125,111.3h-12.9c0,0.1,0,0.1,0,0.2c0,0.2-0.1,0.4-0.2,0.6c-0.2,0.5-0.2,0.9,0.1,1.3
	c0.3,0.4,0.4,0.9,0.4,1.5c0,2.1,0,4.1,0,6.2c0,0.3-0.1,0.7-0.2,1c-0.3,0.5-0.3,0.9-0.1,1.5c0.3,1.1,0.4,2.2-0.8,2.8
	c-0.1,0-0.1,0.1-0.1,0.1c-0.6,0.5-1.2,0.5-1.7-0.1c-0.3-0.4-0.7-0.5-1.2-0.5c-1,0-2,0-3,0c-0.6,0-1.3-0.1-1.7,0.6
	c-0.2,0.3-0.6,0.2-0.7-0.2c0-0.2,0-0.3,0-0.5c0-2.1,0.1-4.1,0.1-6.2c0-0.8-0.1-0.9-0.9-0.9c-1.2,0-2.5,0-3.7,0c-0.9,0-1,0.2-1,1
	c0.1,1.4,0.1,2.7,0.1,4.1c0,0.1,0,0.3,0,0.4c-0.2,0.2-0.3,0.4-0.5,0.5c-0.3,0.1-0.4-0.2-0.4-0.5c0-0.2,0-0.4,0-0.6c0-1.3,0-2.7,0-4
	c0-0.8-0.2-0.9-0.9-0.9c-0.6,0-1.2,0-1.8,0c-0.6,0-1.3-0.1-1.4,0.8c0,0.1-0.2,0.2-0.4,0.2c-0.1,0-0.3-0.2-0.3-0.3
	c-0.1-0.2,0-0.4,0-0.6c0.1-1.5,0.1-2.9,0.2-4.4c0-0.3,0-0.6-0.6-0.6c-0.1,0.2-0.2,0.4-0.2,0.7c0,1.4,0.1,2.8,0.1,4.3
	c0,0.3-0.1,0.6-0.2,0.9c-0.2,0.3-0.4,0.6-0.6,0.9c-0.3,0.3-6.7,0.7-6.7,0.7v31.8h41.6C125.2,153.2,125.2,118.8,125,111.3z
	 M121.5,124H117v-7.4c0-1.2,1-2.2,2.2-2.2s2.2,1,2.2,2.2V124z"/>
<path fill="#CD2776" d="M124.3,109.4c0-0.3,0.1-0.6,0.1-1c0-0.9,0-1.7,0-2.6h-12c0,0.3,0,0.5,0.1,0.8c0.1,0.3,0,0.6,0,1
	c0,0.5-0.2,0.8-0.7,1.1c-0.4,0.2-0.7,0.4-1.2,0.7c0.4,0.3,0.6,0.4,0.8,0.5c0.3,0.2,0.5,0.4,0.6,0.7h13c0-0.4,0-0.7-0.1-0.7
	C124.5,110,124.3,109.8,124.3,109.4z"/>
<path fill="#CD2776" d="M124.4,101.7c0-0.7,0.2-1.4,0.1-2c-0.1-0.6,0-0.9,0.6-1.1c0.4-0.1,0.7-0.3,0.8-0.8c-0.1-0.1-0.2-0.2-0.3-0.2
	c-1.6-0.5-1.9-1.1-1.9-2.8c0.1-1.6,0.1-3.2,0-4.8c-1.3,0.6-2.6,1.5-3.7,2.5c-2.5,2.4-4.3,5.3-5.8,8.4c-0.2,0.5-0.4,0.9-1,0.9
	c-0.5,0-0.7,0.3-0.8,0.7c0,0.4,0,0.9,0,1.3c0,0.3,0.1,0.7,0,1c0,0.1-0.1,0.2-0.1,0.3h11.9C124.4,104.1,124.4,102.9,124.4,101.7z"/>
<path fill="#293362" d="M156.7,40.9C156.8,40.9,156.8,40.9,156.7,40.9l29,0c0,0,0-0.1,0.1-0.1c0.5-0.7,0.3-1.5,0.2-2.3
	c0-0.1-0.2-0.3-0.3-0.3c-0.7-0.2-0.7-0.8-0.7-1.3c0-0.5,0-1,0-1.6c0.1-0.9,0-1.7-0.9-2.3c-0.1-0.1-0.2-0.3-0.3-0.4
	c-0.5-0.8-0.8-0.8-1.3,0.1c-0.2,0.4-0.4,0.5-0.8,0.6v3.6h-0.7v-3.6h0.1c-0.6,0-1.3,0-1.9,0c0,0,0,0-0.1,0v3.6h-0.7v-3.6
	c-0.6,0-1.3,0-1.9,0v3.5h-0.7v-3.6c-0.1,0-0.1,0-0.2,0c-0.7,0-0.9-0.2-1-1c0-0.3,0.1-0.5,0.1-0.8c0.7-0.1,1.3-0.3,1.6-0.9
	c0.1-0.2,0.4-0.3,0.6-0.4c0.7-0.3,0.8-0.4,0.8-1.1c0-0.6-0.3-0.9-0.8-1c-0.6-0.1-1.3-0.3-1.9-0.5c-0.8-0.2-0.9-0.5-0.8-1.3
	c0-0.2,0.1-0.5,0.1-0.7c0-0.2-0.2-0.4-0.4-0.4c-0.1,0-0.3,0.2-0.4,0.3c-0.1,0.2,0,0.5-0.1,0.7c-0.1,0.2-0.3,0.3-0.4,0.3
	c-0.1,0-0.3-0.2-0.3-0.4c-0.1-0.2,0-0.3,0-0.5c0-1,0.1-2,0.1-3c0-0.3-0.1-0.7-0.2-1c-0.3-0.5-0.4-1-0.4-1.6c0-1.2,0.3-2.4-0.4-3.6
	c-0.1-0.2-0.1-0.5-0.1-0.7c0-3.4,0-6.8,0-10.3c0-0.6,0-1.2,0.4-1.7c0.3-0.4,0.3-0.9,0-1.3c-0.3-0.5-0.5-1.1-0.4-1.7
	c0-0.4-0.1-0.8-0.5-0.8c-0.5,0-0.5,0.4-0.5,0.8c0,0.1,0,0.1,0,0.2c0.1,0.5,0,0.9-0.4,1.2c-0.4,0.4-0.4,1-0.1,1.4
	c0.3,0.5,0.4,1,0.4,1.5c0,3,0,6,0,9c0,1.1,0.3,2.2-0.4,3.3c-0.1,0.1,0,0.3,0,0.5c0,0.6,0,1.1,0,1.7c0,0.8,0.1,1.6-0.5,2.3
	c-0.2,0.2-0.2,0.7-0.2,1c0,0.9,0.1,1.9,0.1,2.8c0,0.2-0.2,0.6-0.3,0.7c-0.4,0.1-0.5-0.2-0.6-0.5c-0.1-0.3,0.1-0.7-0.6-0.7
	c0,0.3-0.1,0.5-0.1,0.7c0.2,1.3,0.1,1.5-1.2,1.8c-0.6,0.1-1.2,0.3-1.8,0.5c-0.5,0.2-0.5,0.7-0.5,1.1c0,0.4,0.2,0.7,0.6,0.8
	c0.3,0.1,0.7,0.3,0.9,0.6c0.3,0.3,0.5,0.6,0.9,0.6c0.4,0,0.6,0.3,0.6,0.7c0.1,0.9-0.2,1.2-1.1,1.2c-0.1,0-0.2,0-0.3,0v3.6h-0.7v-3.6
	c-0.6,0-1.3,0-1.9,0v3.6H163v-3.6c-0.5,0-1,0-1.4,0c-0.1,0-0.2,0-0.3,0v3.6h-0.7v-3.6c-0.4-0.1-0.7-0.3-0.8-0.9
	c-0.2-0.5-0.7-0.4-1,0.1c-0.2,0.3-0.3,0.6-0.6,0.8c-0.6,0.4-0.7,0.9-0.7,1.5c0,0.8,0,1.6,0,2.4c0,0.3-0.2,0.8-0.4,0.9
	c-0.6,0.3-0.7,0.7-0.7,1.3C156.5,39.8,156.3,40.4,156.7,40.9z M173.3,33.2h0.7v3.6h-0.7V33.2z M170.8,33.2h0.7v3.6h-0.7V33.2z
	 M168.3,33.1h0.7v3.6h-0.7V33.1z"/>
<path fill="#293362" d="M159.6,80.6H183c0-0.5,0.1-1,0.1-1.5c0-10.3,0-20.6,0-30.9c0-0.8,0-1.5,0-2.3c0-0.5,0.2-1,0.7-1.4
	c0.2-0.2,0.4-0.6,0.5-0.9c0.1-0.2,0.2-0.5,0.4-0.7c0.1-0.2,0.3-0.3,0.3-0.5c0-0.4,0.1-0.6,0.3-0.9h-28c0.1,0.2,0.2,0.5,0.2,0.9
	c0,0.2,0.2,0.3,0.3,0.5c0.2,0.3,0.4,0.6,0.5,0.8c0.1,0.2,0.2,0.5,0.4,0.7c0.7,0.7,0.9,1.5,0.9,2.4c0,10.8,0,21.6,0,32.4
	C159.5,79.7,159.6,80.1,159.6,80.6z M171.6,54.3c2.2,0,3.9,1.8,3.9,3.9s-1.7,3.9-3.9,3.9s-3.9-1.8-3.9-3.9S169.4,54.3,171.6,54.3z"
	/>
<path fill="#293362" d="M184.5,91.3c0-0.1,0-0.3,0-0.4c0.1-0.7,0.1-1.4,0-2.1c0-0.2,0-0.3,0-0.4h-26.4c0,0,0,0.1,0,0.1
	c0,0.7,0,1.5,0,2.2c0,0.2,0,0.4,0,0.6H184.5z"/>
<path fill="#293362" d="M156.9,86.9c0.2,0.2,0.4,0.4,0.6,0.5c0.3,0.1,0.4,0.2,0.5,0.4h26.6c0.1-0.2,0.3-0.3,0.6-0.4
	c0.1,0,0.2-0.1,0.2-0.2c0.6-0.9,1.3-1.9,1.9-2.8c0.5-0.7,0.3-1.6-0.4-2.1c-0.4-0.3-0.4-0.6-0.5-1c0-0.2-0.2-0.6-0.4-0.6
	c-0.2-0.1-0.6,0.1-0.7,0.3c-0.5,0.6-1.1,0.6-1.7,0.6c-0.1,0-0.1,0-0.1,0h-24.7c0,0-0.1,0-0.1,0c-0.7,0-1.3,0.1-1.8-0.6
	c-0.1-0.2-0.5-0.3-0.7-0.3c-0.2,0-0.3,0.4-0.3,0.7c0,0.4,0,0.8-0.5,1c-0.5,0.2-0.5,0.6-0.6,1c-0.1,0.7,0.2,1.2,0.6,1.7
	C156,85.6,156.4,86.3,156.9,86.9z"/>
<path fill="#293362" d="M184.9,92.2C184.9,92.2,184.9,92.2,184.9,92.2l-27.2,0c0,0.1-0.1,0.1-0.1,0.2c-0.5,0.6-0.5,1.6,0,2.1
	c0.4,0.4,0.5,0.9,0.5,1.4c0,6,0,11.9,0,17.9c0,4.9,0,9.8,0,14.8c0,0.3,0,0.5-0.1,0.7h26.4c-0.1-0.3,0-0.6,0-0.9c0.1-0.3,0-0.7,0-1
	c0-3.6,0-7.3,0-10.9c0-6.9,0-13.8,0-20.7c0-0.3,0.2-0.8,0.4-1C185.6,93.7,185.6,93.1,184.9,92.2z M175.1,119.6h-6.4v-13.8
	c0-1.8,1.4-3.2,3.2-3.2c1.8,0,3.2,1.4,3.2,3.2V119.6z"/>
<path fill="#293362" d="M176.6,33.2h-0.7v0.1C176.2,33.2,176.4,33.2,176.6,33.2L176.6,33.2z"/>
<path fill="#293362" d="M179.3,33.2h-0.7v0C178.8,33.2,179,33.2,179.3,33.2L179.3,33.2z"/>
<path fill="#293362" d="M181.9,33.2L181.9,33.2l-0.6,0c0.1,0,0.2,0,0.4,0C181.7,33.2,181.8,33.2,181.9,33.2z"/>
<path fill="#293362" d="M188,132.2c-0.6,0-1,0-1.2-0.7c-0.1-0.2-0.4-0.4-0.7-0.5c-0.4-0.3-0.8-0.5-1.1-0.9h-27.2
	c-0.1,0.2-0.3,0.3-0.6,0.5c-0.3,0.2-0.7,0.4-1,0.5c-0.3,0.1-0.5,0.3-0.5,0.7c0,0.6,0.1,1.2,0.6,1.7c0.6,0.5,0.5,1.2,0.3,1.9
	c-0.2,0.6-0.8,0.4-1.3,0.4c-1.7,0-3.3,0-5,0L83,138.7l4.8,41.5c15.7,0,78.3-0.7,100.5-0.7v-47.3C188.2,132.2,188.1,132.2,188,132.2z
	"/>
<path opacity="0.4" fill="#92449A" d="M186.2,140.9C186.2,140.9,186.2,141,186.2,140.9c-0.2,0.6-13.1,5.1-18.2,7.1
	c-0.1,0-0.2,0.1-0.2,0.1c-0.2,0.1-0.3,0.3-0.5,0.4c0.3,0.3,0.4,0.6,0.5,0.9l0.1,0.5c0,0.5,0,1,0,1.5c0,1.6,0,3.1,0,4.7
	c0,0.1,0,0.3,0,0.3c-0.4,0.9-0.2,1.9-0.2,2.8c0,2.1-0.1,4.4-0.5,4.6c-0.5,0.4-1,0.8-0.9,1.5c0,0.2-0.1,0.4-0.2,0.5
	c-0.4,0.4-0.4,0.8-0.4,1.3c0,3.4,0,1.6,0,5c0,0.1,0,0.2,0,0.4c0,0.6,0.2,0.7,0.8,0.7h0c3.3,0,6.6,0,9.8,0c3.6,0,7.7,0,12.1,0v-32.8
	C187.7,140.8,187,141,186.2,140.9z"/>
<rect x="20.9" y="129.9" fill="#FFFFFF" width="52.4" height="0.8"/>
<polygon fill="#FFFFFF" points="75,125.8 46.3,115 18.4,126.6 75.7,129.1 "/>
<polygon fill="#0090AA" points="22.2,125.4 71.8,125.4 47,116.2 "/>
<path fill="#0090AA" d="M89.8,166c0-2.6,0-5.3,0-7.9c0-0.2,0-0.4,0-0.5c0.4-0.7,0.2-1.1-0.4-1.6c-0.2-0.1-0.2-0.6-0.2-0.8
	c0.1-0.6,0-1-0.4-1.4c-0.3-0.3-0.4-0.8-0.4-1.2c0-1.7,0-3.4,0-5c0-0.4,0-0.8,0.1-1.1c0.1-0.5,0.1-0.9-0.2-1.4
	c-0.1-0.2-0.2-0.4-0.2-0.6c0-1.3,0-2.7,0.1-4c0-0.5,0.1-1-0.1-1.5c-0.2-0.6-0.1-1,0.6-1.2c0.4-0.1,0.7-0.3,0.9-0.7
	c0.2-0.4,0-0.7-0.5-0.8c-0.1,0-0.1,0-0.2,0c-0.3,0.1-0.8,0.2-0.9-0.2c-0.1-0.3,0.1-0.7,0.2-0.9c0.2-0.4,0.6-0.8,0.8-1.3
	c-1.4-0.7-2.1-1.9-3-3c-0.1-0.2-0.1-0.5-0.1-0.7c0-0.7,0-1.4,0-2.1c0-0.3,0.1-0.7,0.2-1c0.1-0.2,0.1-0.4,0.2-0.8
	c-0.5-0.1-0.9-0.1-1.3-0.2c-0.7-0.1-0.9-0.4-0.7-1.1c0.1-0.4,0.1-0.7-0.1-1.1c-0.2-0.3-0.2-0.7-0.2-1.1c0-1.2,0-2.4,0-3.6
	c0-0.3-0.1-0.7-0.2-1.1c-0.2,0-0.3,0.1-0.4,0.2c0,0-0.1,0-0.1,0c-0.1,0-0.3,0.3-0.5,0.4c-0.1,0.1,0,0.3,0,0.4c0,2,0,4,0,6.1
	c0,0.5-0.1,0.7-0.5,0.7c-0.4,0-0.9,0-1.3,0c-0.6,0-1.2,0-1.8,0c-0.2,0-0.4,0-0.5,0c-0.3-0.1-0.4-0.2-0.4-0.5c0-0.2-0.1-0.4,0-0.5
	c0.2-1-0.2-1.7-1-2.3c-0.2-0.1-0.4-0.3-0.6-0.4c-0.2,0-0.3-0.1-0.4-0.2c0,0,0,0,0,0c-0.7-0.4-1.2-1-1.4-1.7
	c-0.1-0.4-0.3-0.8-0.3-1.1c-0.1-0.5,0-1,0-1.4c0-0.8-0.1-1.6,0.7-2.1c-0.2-0.6-0.7-0.7-1-0.8c-0.4-0.2-0.6-0.4-0.6-0.8
	c0-0.8,0-1.6-0.1-2.3c-0.1-0.5,0.1-0.9,0.4-1.3c0.3-0.3,0.5-0.8,0.5-1.2c0.2-1.2,0-2.5,0.4-3.6c0,0-0.1-0.1-0.1-0.2
	c-0.2,0-0.4,0-0.5,0.1c-0.8,0.7-1.2,1.6-1.2,2.8c-0.7-0.8-1.3-0.6-2.1,0c-0.1-1.3-0.3-2.5-1.7-3c0,0.3-0.1,0.4-0.1,0.5
	c0.6,1,0.2,2.1,0.4,3.2c0.1,0.6,0.1,1.1,0.5,1.5c0.2,0.2,0.5,0.5,0.4,0.8c-0.2,1,0.1,2.1-0.3,3.1c-0.1,0.2-0.3,0.4-0.5,0.6
	c-0.3,0.3-0.7,0.5-1,0.7c0.2,0.7,0.4,1.2,0.5,1.8c0.1,0.8,0,1.6,0,2.4c0,0.7-0.3,0.9-1,0.7c-1.3-0.5-2.6-1-3.9-1.5
	c-2.7-1-5.5-2-8.2-3c-2.3-0.8-4.6-1.7-6.9-2.5c-0.3-0.1-0.5-0.3-0.5-0.7c-0.1-0.4-0.2-0.8-0.3-1.2c-0.2-0.8-0.4-1.5-0.6-2.3
	c0.7-0.6,0.5-1.6,0.7-2.4c0-0.1,0.1-0.1,0.1-0.2c0.1-0.2,0.1-0.4,0.1-0.6c0-1.1,0.4-2.1,0.8-3.2c0.1-0.2,0.1-0.4,0.1-0.6
	c-0.6-0.2-0.8,0.2-1.1,0.5c-0.3,0.3-0.5,0.6-0.7,0.9c-0.2,0.3-0.3,0.7-0.5,1h-1.6c-1.5-2.4-1.6-2.5-2.5-2.3c0.2,0.5,0.4,0.9,0.5,1.3
	c0.2,0.9,0.3,1.9,0.6,2.8c0.3,0.9-0.1,2,0.7,2.7c0.1,0,0,0.2,0,0.3c-0.2,0.8,0,1.6-0.5,2.3c-0.2,0.2-0.2,0.5-0.2,0.8
	c0,0.5-0.3,0.8-0.8,0.9c-1.7,0.6-3.5,1.2-5.2,1.9c-1.3,0.5-2.6,1-4,1.4c-2.1,0.8-4.1,1.5-6.2,2.3c-1.2,0.4-2.4,0.9-3.6,1.3
	c-0.8,0.3-1.1,0.1-1-0.8c0-0.5,0.1-1.1,0.1-1.6c0-0.6-0.1-1.2,0.3-1.8c0.3-0.3,0.1-0.7-0.2-1c-0.2-0.1-0.4-0.2-0.6-0.3
	c-0.4-0.2-0.6-0.4-0.7-0.9c-0.1-0.7,0-1.4-0.1-2.1c-0.1-0.6,0-1.1,0.5-1.5c0.4-0.4,0.6-0.8,0.6-1.5c0-1,0.2-2,0.2-3
	c0-0.2-0.1-0.4-0.1-0.7c-1.2,0.7-1.5,1.7-1.6,2.9c-0.4-0.1-0.7-0.3-1.1-0.3c-0.3,0-0.7,0.2-1,0.3c-0.2-1.8-0.8-2.6-1.9-2.7
	c0.2,0.5,0.4,1,0.4,1.5c0.1,0.7,0.1,1.4,0,2c0,0.6,0.2,1.1,0.5,1.5c0.2,0.2,0.5,0.6,0.5,0.7c-0.2,0.9,0.2,1.8-0.2,2.7
	c-0.2,0.5-0.4,0.8-0.9,1c-0.3,0.1-0.6,0.4-1.1,0.6c1.1,0.5,1.1,1.2,1,2.1c0,0.5,0,1,0,1.5c0,0.3,0,0.6-0.1,0.8
	c-0.6,0.8-0.9,1.9-2,2.2c-0.2,0.1-0.4,0.3-0.6,0.4c-0.8,0.5-1.3,1.2-1,2.3c0,0.2,0,0.3,0,0.5c0,0.4-0.3,0.6-0.6,0.6
	c-1.2,0-2.5,0-3.7,0c-0.4,0-0.7-0.3-0.5-0.7c0.3-0.6,0.2-1,0-1.6c-0.1-0.3-0.1-0.7-0.1-1c0-1.1,0.1-2.2,0.1-3.3c0-0.5,0-1-0.8-1.2
	c-0.1,0.4-0.2,0.7-0.2,1.1c0,1.2,0,2.4,0,3.6c0,0.4,0,0.8-0.2,1.1c-0.2,0.4-0.2,0.7-0.1,1.1c0.2,0.7,0,0.9-0.7,1.1
	c-0.4,0.1-0.8,0.1-1.3,0.2c0.1,0.3,0.2,0.5,0.2,0.8c0.1,0.3,0.2,0.7,0.2,1c0,0.7,0,1.4,0,2.1c0,0.2,0,0.5-0.1,0.7
	c-0.8,1.1-1.6,2.3-3,3c0.3,0.4,0.6,0.8,0.8,1.3c0.1,0.3,0.3,0.7,0.2,0.9c-0.1,0.4-0.6,0.3-0.9,0.2c-0.1,0-0.1,0-0.2,0
	c-0.5,0-0.7,0.3-0.5,0.8c0.2,0.4,0.5,0.6,0.9,0.7c0.7,0.2,0.8,0.5,0.6,1.2c-0.2,0.5-0.1,1-0.1,1.5c0.1,1.3,0.1,2.7,0.1,4
	c0,0.2-0.1,0.4-0.2,0.6c-0.3,0.4-0.3,0.9-0.2,1.4c0.1,0.4,0.1,0.7,0.1,1.1c0,1.7,0,3.4,0,5c0,0.5-0.1,0.9-0.4,1.2
	c-0.4,0.4-0.5,0.9-0.4,1.4c0.1,0.3,0,0.7-0.2,0.8c-0.6,0.4-0.7,0.9-0.4,1.6c0.1,0.1,0,0.3,0,0.5c0,2.6,0,5.3,0,7.9
	c0,1.8,0,3.6-0.1,5.5c0,0.7,0.2,1,1,1c1.1,0,2.1,0,3.2,0c22.7,0,45.4,0,68.1,0l0,0c3.1,0,6.2,0,9.3,0c1.1,0,2.1,0,3.2,0
	c0.8,0,1-0.3,1-1C89.8,169.6,89.8,167.8,89.8,166z M31.4,167.5h-7.1v-8.7h7.1V167.5z M31.4,154.8h-7.1v-8.7h7.1V154.8z M31.4,145.5
	h-7.1v-2.3c0-2,1.6-3.5,3.5-3.5c2,0,3.5,1.6,3.5,3.5V145.5z M50.6,167.5h-7.1v-8.7h7.1V167.5z M50.6,154.8h-7.1v-8.7h7.1V154.8z
	 M50.6,145.5h-7.1v-2.3c0-2,1.6-3.5,3.5-3.5c2,0,3.5,1.6,3.5,3.5V145.5z M69.8,167.5h-7.1v-8.7h7.1V167.5z M69.8,154.8h-7.1v-8.7
	h7.1V154.8z M69.8,145.5h-7.1v-2.3c0-2,1.6-3.5,3.5-3.5c2,0,3.5,1.6,3.5,3.5V145.5z M72.8,131.8H21.1v-0.6h51.8V131.8z M73.1,125.4
	v0.4h-52v-0.4h0l0,0l26-9.7l0,0l0,0l0,0l0,0L73.1,125.4L73.1,125.4L73.1,125.4z"/>
</svg>
