<?xml version="1.0" encoding="utf-8"?>
<!-- Generator: Adobe Illustrator 18.0.0, SVG Export Plug-In . SVG Version: 6.00 Build 0)  -->
<!DOCTYPE svg PUBLIC "-//W3C//DTD SVG 1.1//EN" "http://www.w3.org/Graphics/SVG/1.1/DTD/svg11.dtd">
<svg version="1.1" id="Layer_1" xmlns="http://www.w3.org/2000/svg" xmlns:xlink="http://www.w3.org/1999/xlink" x="0px" y="0px"
	 viewBox="0 238.4 1984.3 941.6" enable-background="new 0 238.4 1984.3 941.6" xml:space="preserve">
<g>
	<linearGradient id="SVGID_1_" gradientUnits="userSpaceOnUse" x1="62.0154" y1="1088.4246" x2="976.0154" y2="208.4245">
		<stop  offset="0.12" style="stop-color:#D4AB00"/>
		<stop  offset="0.84" style="stop-color:#00AA9E"/>
	</linearGradient>
	<path fill="url(#SVGID_1_)" d="M854.3,789.2h0.3c0-218.1-174.8-390.8-390.5-390.8c-4.8,0-9.7,0-14.5,0.3c-0.6,0-1.2,0-1.8,0
		c-4.8,0.3-9.7,0.6-14.5,0.9c-4.8,0.3-9.7,0.9-14.5,1.5c-0.6,0-0.9,0-1.5,0.3c-4.8,0.6-9.4,1.2-14.2,2.1c-0.6,0-0.9,0.3-1.5,0.3
		c-3.9,0.6-8.1,1.4-12.1,2.2l-96.1-167.7l-7.9,4.5l94.6,165.2c-2.1,0.4-4.1,0.9-6.1,1.3c-1.2,0.3-2.4,0.6-3.6,0.9
		c-3.3,0.9-7,1.8-10.3,2.7c-1.8,0.6-3.6,0.9-5.5,1.5c-2.7,0.9-5.5,1.5-8.2,2.4c-2.1,0.6-4.2,1.5-6.4,2.1c-1.2,0.3-2.4,0.9-3.9,1.2
		c-4.8,1.8-10,3.6-14.8,5.5c0,0,0,0-0.3,0c-105.1,41.2-189.6,127.2-227.2,239c-1.8,5.1-3.3,9.7-4.8,15.8h9.7
		c35.4-118.1,126-212.4,242-252c0.6-0.3,1.2-0.3,1.8-0.6c2.1-0.6,4.2-1.5,6.7-2.1c3.6-1.2,7-2.1,10.6-3.3c0.3,0,0.6-0.3,0.9-0.3
		c4.5-1.2,9.1-2.4,13.6-3.6h0.3c3.4-0.8,6.7-1.6,10.1-2.3l272.2,475.2l7.9-4.5L393.9,414.3c22.8-4.2,46.4-6.4,70.2-6.4
		c210.5,0,381.7,171.2,381.7,381.7c0,3.6-3,23-9.4,32.4c-16.7,25.4-46.3,44.2-78.2,63.9c-39.1,24.2-83.3,52.1-113.3,98.8
		c-17,26.4-25.7,53-34.5,78.8c-17.9,53.3-31.8,95.4-107.2,105.7c-9.7,1.2-19.7,1.8-29.4,1.8c-0.3,0-0.6,0-0.6,0c-3,0-5.8,0-8.5,0
		c-187.8,0-345-136.3-375.6-315.4l-9.4,3.3v0.3c2.1,12.4,5.1,24.8,8.5,37.3c0.3,0.9,0.6,1.8,0.9,2.7c0.6,1.8,1.2,3.9,1.8,5.8
		c0.6,1.5,0.9,3,1.5,4.8c0.3,1.2,0.6,2.1,1.2,3.3c0.6,2.1,1.5,4.2,2.1,6.4c0.3,0.6,0.3,0.3,0.6,0.6
		c53.9,151.5,198.7,259.9,368.4,259.9h4.5h0.9c14.8,0,28.2-0.3,41.5-2.7c1.2-0.3,2.1,0,3.3-0.3c2.7-0.6,5.8-0.9,8.5-1.5
		c30.6-4.5,60-12.7,87.5-23.9c22.7-8.8,43.3-19.4,61.5-31.5c109.7-69.4,181.8-191.5,182.1-330.2
		C854.9,789.5,854.3,789.5,854.3,789.2z M570.7,1153.4c27-21.2,37.6-52.7,49.1-87.2c8.5-25.4,17.3-51.5,33.6-76.9
		c29.1-45.1,72.4-72.1,110.6-96c23-14.5,45.1-28.2,62.4-44.8c-15.1,21.2-37.3,38.5-60.3,56.3c-40.3,31.2-81.8,63.9-96.6,121.5
		C648.6,1104.9,616.8,1136.1,570.7,1153.4z M612.2,1141.3c28.5-21.2,50.6-54.8,65.7-113c14.2-54.8,54.5-86,93.6-116.3
		c20.9-16.1,40.9-31.8,56-50.3c-11.2,19.7-27.3,36-44.5,53.3c-28.8,28.8-61.2,61.8-79.7,120.9C686.2,1091.3,660.1,1121,612.2,1141.3
		z M676.8,1106.4c15.1-17.6,26.4-39.7,35.4-68.5c17.9-57,49.7-88.8,77.6-116.9c13.9-14.2,27.6-27.9,38.5-43.9
		c-6.1,13.9-13.9,25.7-23.3,40.3c-13.9,21.5-31.5,48.5-53,95.1C734.3,1051.3,709.5,1082.2,676.8,1106.4z M738.3,1055.5
		c8.5-12.1,15.8-25.1,22.1-39.1c21.2-46,38.5-72.7,52.4-93.9c7.9-12.4,14.8-22.7,20.6-33.9C816.1,951.9,783.1,1009.5,738.3,1055.5z"
		/>
	<linearGradient id="SVGID_2_" gradientUnits="userSpaceOnUse" x1="-106.7303" y1="913.1591" x2="807.2697" y2="33.1591">
		<stop  offset="0.12" style="stop-color:#D4AB00"/>
		<stop  offset="0.84" style="stop-color:#00AA9E"/>
	</linearGradient>
	<path fill="url(#SVGID_2_)" d="M82.1,821.7c3.9-4.2,7-9.1,9.1-14.8c2.1-5.5,3-11.8,3-18.2v-72.7H83.6v72.7c0,5.5-0.9,10.3-2.4,14.8
		c-1.5,4.5-3.6,8.5-6.7,11.8c-3,3.3-6.7,6.1-10.9,7.9s-9.1,2.7-14.5,2.7s-10.3-0.9-14.5-2.7c-3.9-1.8-7.6-4.5-10.6-7.9
		c-2.7-3.3-5.1-7.3-6.7-11.8c-1.5-4.5-2.4-9.7-2.4-14.8v-72.7H4.2v72.7c0,6.4,0.9,12.4,3,18.2c2.1,5.8,5.1,10.6,9.1,14.8
		c3.9,4.2,8.8,7.6,14.2,10c5.5,2.4,11.8,3.6,18.8,3.6c6.7,0,13-1.2,18.5-3.6C73.3,829.2,78.2,825.9,82.1,821.7z"/>
	<linearGradient id="SVGID_3_" gradientUnits="userSpaceOnUse" x1="-49.5885" y1="972.5087" x2="864.4114" y2="92.5087">
		<stop  offset="0.12" style="stop-color:#D4AB00"/>
		<stop  offset="0.84" style="stop-color:#00AA9E"/>
	</linearGradient>
	<path fill="url(#SVGID_3_)" d="M233,715.6h-8.2c-1.2,0-2.1,0.3-2.7,0.9c-0.6,0.6-1.2,1.5-1.5,2.1l-39.4,96
		c-0.3,1.2-0.9,2.4-1.2,3.9c-0.3-1.5-0.6-2.7-1.2-3.9l-39.4-96c-0.3-0.9-0.9-1.5-1.5-2.1c-0.9-0.6-1.8-0.9-2.7-0.9h-8.2l48.8,118.1
		h9.1L233,715.6z"/>
	<linearGradient id="SVGID_4_" gradientUnits="userSpaceOnUse" x1="24.3696" y1="1049.3242" x2="938.3696" y2="169.3242">
		<stop  offset="0.12" style="stop-color:#D4AB00"/>
		<stop  offset="0.84" style="stop-color:#00AA9E"/>
	</linearGradient>
	<path fill="url(#SVGID_4_)" d="M330.2,769.6c3-2.7,5.5-6.4,7-10c1.5-3.6,2.4-7.9,2.4-12.4c0-10.3-3.3-18.2-10.3-23.6
		c-6.7-5.2-17-7.9-30.6-7.9h-30.6v118.1h10.6v-52.4h13.9c0.9,0,2.1,0,2.7,0c0.6,0,1.2,0,1.8,0.3c0.3,0.3,0.9,0.6,1.2,0.9
		c0.3,0.6,0.9,0.9,1.2,1.5l37,47c0.6,0.9,1.2,1.8,2.1,2.1c0.6,0.3,1.5,0.6,2.7,0.6h9.7l-41.2-52.1c-0.3-0.6-0.9-1.2-1.5-1.8
		c3.9-0.9,7.9-1.8,11.2-3.3C323.5,774.7,327.2,772.3,330.2,769.6z M329,747.7c0,3.6-0.6,7.3-2.1,10.3c-1.2,3-3.3,5.8-6.1,7.9
		c-2.7,2.1-6.1,3.9-10,5.1c-3.9,1.2-8.5,1.8-13.3,1.8h-18.8v-48.2h20c10,0,17.6,1.8,22.7,5.8C326.6,734.1,329,739.9,329,747.7z"/>
	<linearGradient id="SVGID_5_" gradientUnits="userSpaceOnUse" x1="74.2672" y1="1101.1498" x2="988.2672" y2="221.1497">
		<stop  offset="0.12" style="stop-color:#D4AB00"/>
		<stop  offset="0.84" style="stop-color:#00AA9E"/>
	</linearGradient>
	<path fill="url(#SVGID_5_)" d="M431.7,818.3c-2.4,2.4-5.5,4.2-8.8,5.5c-3.3,1.5-7.3,2.1-11.8,2.1c-3.3,0-6.4-0.3-8.8-0.9
		c-2.4-0.6-4.8-1.5-6.7-2.4c-1.8-0.9-3.6-1.8-5.1-3c-1.5-1.2-3-2.1-3.9-3s-1.8-1.8-2.7-2.4c-1.2-0.9-1.8-1.2-2.7-1.2
		s-2.1,0.3-3.3,1.8l-2.7,4.2l0.6,0.6c4.2,4.5,9.1,8.5,14.8,11.2c5.8,2.7,12.4,4.2,20.3,4.2c6.1,0,11.2-0.9,16.4-3
		c4.8-2.1,8.8-4.5,12.1-7.9s5.8-7,7.6-11.5c1.5-4.5,2.4-9.4,2.4-14.2s-0.9-9.1-2.7-12.4c-1.8-3.3-4.2-6.4-7-8.5
		c-3-2.1-6.1-3.9-9.7-5.5c-3.6-1.5-7.3-2.7-10.9-3.9s-7.3-2.4-10.6-3.6s-6.4-2.7-9.1-4.5c-2.7-1.8-4.8-3.9-6.4-6.4s-2.4-5.5-2.4-9.1
		c0-2.7,0.6-5.8,1.5-8.2s2.4-4.8,4.5-6.7c2.1-1.8,4.5-3.3,7.6-4.5c3-1.2,6.7-1.8,10.6-1.8c4.2,0,7.6,0.6,10.3,1.5s5.1,2.1,7,3.3
		c2.1,1.2,3.3,2.4,4.5,3.3c1.5,1.2,2.7,1.8,3.6,1.8c0.9,0,2.1-0.6,3-2.1l2.4-4.5l-0.6-0.6c-3.9-4.2-8.5-7.3-13.3-9.1
		c-4.8-2.1-10.6-3-16.7-3c-5.8,0-10.6,0.9-14.8,2.7c-4.2,1.8-7.9,4.2-10.9,7c-2.7,3-5.1,6.4-6.7,10s-2.4,7.6-2.4,11.5
		c0,5.1,0.9,9.7,2.7,13c1.8,3.3,4.2,6.1,7,8.5c3,2.4,6.1,4.2,9.7,5.8c3.6,1.5,7.3,2.7,10.9,3.9s7.3,2.4,10.6,3.6s6.4,2.4,9.1,4.2
		c2.7,1.8,4.8,3.9,6.4,6.4c1.5,2.4,2.4,5.5,2.4,9.4c0,3.6-0.6,7.3-1.8,10.3C435.9,813.2,434.1,815.9,431.7,818.3z"/>
	<linearGradient id="SVGID_6_" gradientUnits="userSpaceOnUse" x1="362.5384" y1="1400.5587" x2="1276.5385" y2="520.5587">
		<stop  offset="0.12" style="stop-color:#D4AB00"/>
		<stop  offset="0.84" style="stop-color:#00AA9E"/>
	</linearGradient>
	<path fill="url(#SVGID_6_)" d="M1113.6,695c2.4,2.7,5.8,5.1,9.4,6.7s7.9,2.4,12.4,2.4c4.2,0,8.5-0.6,11.2-2.4
		c3.6-1.5,6.7-3.9,9.4-6.7c2.7-2.7,4.5-6.1,6.1-9.7s2.1-7.6,2.1-11.8v-46.7h-10.6v46.7c0,3-0.3,6.1-1.2,8.5
		c-0.9,2.4-2.1,4.5-3.6,6.4c-1.5,1.8-3.3,3.3-5.8,4.2c-4.5,2.1-11.5,2.1-16.1,0c-2.1-0.9-4.2-2.4-5.8-4.2c-1.5-1.8-2.7-3.9-3.6-6.4
		c-0.9-2.7-1.2-5.5-1.2-8.5v-46.7h-10.9v46.7c0,4.2,0.9,8.2,2.1,11.8C1109.1,689,1111.2,692.3,1113.6,695z"/>
	<linearGradient id="SVGID_7_" gradientUnits="userSpaceOnUse" x1="408.3006" y1="1448.089" x2="1322.3007" y2="568.089">
		<stop  offset="0.12" style="stop-color:#D4AB00"/>
		<stop  offset="0.84" style="stop-color:#00AA9E"/>
	</linearGradient>
	<path fill="url(#SVGID_7_)" d="M1201.2,669.3h1.8c0.6,0,1.2,0,1.5,0c0.3,0.3,0.6,0.3,0.6,0.3c0.3,0,0.6,0.3,0.6,0.3
		c0.3,0.3,0.6,0.6,0.9,0.9l30,30.6c0.6,0.6,1.2,1.2,1.8,1.5c0.9,0.3,1.8,0.6,3.3,0.6h10.6l-37-38.8c-0.3-0.3-0.6-0.6-0.9-0.9
		l0.3-0.3l36-36.7h-10.9c-0.9,0-1.8,0.3-2.7,0.6c-0.9,0.3-1.8,0.9-2.4,1.8l-28.8,29.4c-0.3,0.3-0.3,0.6-0.9,0.9c0,0-0.3,0-0.6,0
		c-0.6,0-0.9,0-1.5,0h-1.5v-32.7h-10.9v76.6h10.6V669.3z"/>
	<linearGradient id="SVGID_8_" gradientUnits="userSpaceOnUse" x1="443.203" y1="1484.3398" x2="1357.203" y2="604.3399">
		<stop  offset="0.12" style="stop-color:#D4AB00"/>
		<stop  offset="0.84" style="stop-color:#00AA9E"/>
	</linearGradient>
	<path fill="url(#SVGID_8_)" d="M1276,671.4h6.4c0.6,0,1.2,0,1.5,0s0.3,0.3,0.6,0.3c0.3,0,0.3,0.3,0.6,0.6l22.7,28.5
		c0.6,0.9,1.2,1.8,2.1,2.1c0.9,0.3,1.8,0.6,2.7,0.6h10.3l-27-33.3c1.5-0.6,2.7-0.9,3.9-1.5c2.7-1.2,5.1-3,7.3-4.8
		c1.8-2.1,3.3-4.2,4.5-7c0.9-2.4,1.5-5.5,1.5-8.5c0-7-2.4-12.4-7.3-16.1c-4.5-3.6-11.2-5.5-20-5.5h-20.9v76.6h10.9V671.4z
		 M1298.7,639.6c2.7,2.1,3.9,4.8,3.9,9.1c0,2.1-0.6,3.9-1.2,5.5c-0.6,1.5-1.5,2.7-3,3.9c-1.5,1.2-3.3,2.1-5.5,2.7
		c-2.1,0.6-4.8,0.9-7.6,0.9h-9.4h-0.3v-25.1h10.3C1291.7,636.6,1296,637.5,1298.7,639.6z"/>
	<linearGradient id="SVGID_9_" gradientUnits="userSpaceOnUse" x1="483.4974" y1="1526.191" x2="1397.4973" y2="646.1911">
		<stop  offset="0.12" style="stop-color:#D4AB00"/>
		<stop  offset="0.84" style="stop-color:#00AA9E"/>
	</linearGradient>
	<path fill="url(#SVGID_9_)" d="M1337.5,702.6c0.6-0.6,1.2-1.2,1.5-2.1l7.6-18.8h31.2l7.6,18.8c0.3,0.9,0.9,1.5,1.5,2.1
		c0.9,0.6,1.8,0.9,3,0.9h8.2l-31.8-76.6h-3.6h-1.5h-3.6l-31.2,76.6h8.2C1335.7,703.5,1336.6,703.2,1337.5,702.6z M1362.3,642.9
		l11.8,29.1h-23.3L1362.3,642.9z"/>
	<linearGradient id="SVGID_10_" gradientUnits="userSpaceOnUse" x1="503.6081" y1="1547.0789" x2="1417.6082" y2="667.0789">
		<stop  offset="0.12" style="stop-color:#D4AB00"/>
		<stop  offset="0.84" style="stop-color:#00AA9E"/>
	</linearGradient>
	<rect x="1414.1" y="626.9" fill="url(#SVGID_10_)" width="10.9" height="76.6"/>
	<linearGradient id="SVGID_11_" gradientUnits="userSpaceOnUse" x1="533.3371" y1="1577.9564" x2="1447.3372" y2="697.9565">
		<stop  offset="0.12" style="stop-color:#D4AB00"/>
		<stop  offset="0.84" style="stop-color:#00AA9E"/>
	</linearGradient>
	<path fill="url(#SVGID_11_)" d="M1461.4,646.9l40.9,54.5c0.6,0.6,1.2,1.2,1.8,1.5c0.6,0.3,1.5,0.6,2.4,0.6h5.1v-76.6h-10v56.6
		l-40.9-54.5c-0.6-0.6-1.2-1.2-1.8-1.5c-0.9-0.6-1.5-0.6-2.4-0.6h-5.5v76.6h10.3V646.9z"/>
	<linearGradient id="SVGID_12_" gradientUnits="userSpaceOnUse" x1="563.2118" y1="1608.9854" x2="1477.2118" y2="728.9854">
		<stop  offset="0.12" style="stop-color:#D4AB00"/>
		<stop  offset="0.84" style="stop-color:#00AA9E"/>
	</linearGradient>
	<rect x="1538" y="626.9" fill="url(#SVGID_12_)" width="10.9" height="76.6"/>
	<linearGradient id="SVGID_13_" gradientUnits="userSpaceOnUse" x1="598.0413" y1="1645.1605" x2="1512.0413" y2="765.1605">
		<stop  offset="0.12" style="stop-color:#D4AB00"/>
		<stop  offset="0.84" style="stop-color:#00AA9E"/>
	</linearGradient>
	<path fill="url(#SVGID_13_)" d="M1575.6,702.6c0.6-0.6,1.2-1.2,1.5-2.1l7.6-18.8h31.2l7.6,18.8c0.3,0.9,0.9,1.5,1.5,2.1
		c0.9,0.6,1.8,0.9,3,0.9h8.2l-31.5-76.6h-3.9h-1.5h-3.6l-31.2,76.6h8.2C1573.8,703.5,1574.7,703.2,1575.6,702.6z M1600.1,642.9
		l11.8,29.1h-23.3L1600.1,642.9z"/>
	<linearGradient id="SVGID_14_" gradientUnits="userSpaceOnUse" x1="630.102" y1="1678.46" x2="1544.1019" y2="798.46">
		<stop  offset="0.12" style="stop-color:#D4AB00"/>
		<stop  offset="0.84" style="stop-color:#00AA9E"/>
	</linearGradient>
	<path fill="url(#SVGID_14_)" d="M1662.2,646.9l40.9,54.5c0.6,0.6,1.2,1.2,1.8,1.5c0.6,0.3,1.5,0.6,2.4,0.6h5.2h0.3v-76.6h-10v56.6
		l-40.9-54.5c-0.6-0.6-1.2-1.2-1.8-1.5c-0.6-0.3-1.5-0.6-2.4-0.6h-5.5v76.6h10V646.9z"/>
	<linearGradient id="SVGID_15_" gradientUnits="userSpaceOnUse" x1="425.9839" y1="1466.4556" x2="1339.984" y2="586.4556">
		<stop  offset="0.12" style="stop-color:#D4AB00"/>
		<stop  offset="0.84" style="stop-color:#00AA9E"/>
	</linearGradient>
	<path fill="url(#SVGID_15_)" d="M1140.3,831.7h1.5h3.3l31.5-76.6h-8.2c-1.2,0-2.1,0.3-3,0.9c-0.6,0.6-1.2,1.5-1.5,2.1l-23,56.3
		l-23-56.3c-0.3-0.9-0.9-1.5-1.5-2.1c-0.9-0.6-1.8-0.9-3-0.9h-8.2l31.5,76.6H1140.3z"/>
	<linearGradient id="SVGID_16_" gradientUnits="userSpaceOnUse" x1="460.9592" y1="1502.7821" x2="1374.9592" y2="622.7822">
		<stop  offset="0.12" style="stop-color:#D4AB00"/>
		<stop  offset="0.84" style="stop-color:#00AA9E"/>
	</linearGradient>
	<rect x="1192.4" y="755" fill="url(#SVGID_16_)" width="10.9" height="76.6"/>
	<linearGradient id="SVGID_17_" gradientUnits="userSpaceOnUse" x1="480.56" y1="1523.1401" x2="1394.5599" y2="643.1402">
		<stop  offset="0.12" style="stop-color:#D4AB00"/>
		<stop  offset="0.84" style="stop-color:#00AA9E"/>
	</linearGradient>
	<polygon fill="url(#SVGID_17_)" points="1281.4,755 1220.5,755 1220.5,765 1245.7,765 1245.7,831.7 1256.6,831.7 1256.6,765 
		1281.4,765 	"/>
	<linearGradient id="SVGID_18_" gradientUnits="userSpaceOnUse" x1="523.2589" y1="1567.4889" x2="1437.2589" y2="687.4888">
		<stop  offset="0.12" style="stop-color:#D4AB00"/>
		<stop  offset="0.84" style="stop-color:#00AA9E"/>
	</linearGradient>
	<path fill="url(#SVGID_18_)" d="M1356.3,831.7l-27-33.6c1.5-0.6,2.7-0.9,3.9-1.5c2.7-0.9,5.1-2.7,7.3-4.5c1.8-2.1,3.3-4.2,4.5-7
		c0.9-2.4,1.5-5.5,1.5-8.5c0-7-2.4-12.4-7.3-16.1c-4.5-3.6-11.2-5.5-20-5.5h-20.9v76.6h10.9v-32.1h6.4c0.6,0,1.2,0,1.5,0
		s0.3,0.3,0.6,0.3s0.3,0.3,0.6,0.6l22.7,28.5c0.6,0.9,1.2,1.8,2.1,2.1c0.9,0.3,1.8,0.6,2.7,0.6H1356.3z M1336.3,777.1
		c0,2.1-0.6,3.9-1.2,5.5c-0.6,1.5-1.5,2.7-3,3.9s-3.3,2.1-5.5,2.7c-2.1,0.6-4.8,0.9-7.6,0.9h-9.4h-0.3V765h10.3c5.8,0,10,0.9,12.7,3
		C1335.1,770.2,1336.3,772.9,1336.3,777.1z"/>
	<linearGradient id="SVGID_19_" gradientUnits="userSpaceOnUse" x1="555.7567" y1="1601.2423" x2="1469.7567" y2="721.2422">
		<stop  offset="0.12" style="stop-color:#D4AB00"/>
		<stop  offset="0.84" style="stop-color:#00AA9E"/>
	</linearGradient>
	<polygon fill="url(#SVGID_19_)" points="1419,822 1381.4,822 1381.4,797.7 1412.6,797.7 1412.6,788 1381.4,788 1381.4,765 
		1419,765 1419,755 1370.8,755 1370.8,831.7 1419,831.7 	"/>
	<linearGradient id="SVGID_20_" gradientUnits="userSpaceOnUse" x1="592.492" y1="1639.3969" x2="1506.4921" y2="759.3969">
		<stop  offset="0.12" style="stop-color:#D4AB00"/>
		<stop  offset="0.84" style="stop-color:#00AA9E"/>
	</linearGradient>
	<path fill="url(#SVGID_20_)" d="M1497.1,765.9c-3.3-3.6-7.3-6.4-11.8-8.2s-9.4-2.7-14.8-2.7s-10.3,0.9-14.8,2.7
		c-4.2,1.8-8.2,4.5-11.5,7.9s-5.8,7.6-7.6,12.4c-1.8,4.5-2.7,10-2.7,15.8c0,5.8,0.9,10.9,2.7,15.8c1.8,4.8,4.2,9.1,7.6,12.4
		c3,3.3,7,6.1,11.5,7.9c4.5,1.8,9.4,2.7,14.8,2.7c5.2,0,10.3-0.9,14.8-2.4c4.5-1.8,8.5-4.5,11.8-7.9c3.3-3.3,5.8-7.6,7.6-12.4
		c1.8-4.5,2.7-10,2.7-15.8s-0.9-10.9-2.7-15.8C1502.9,773.5,1500.5,769.2,1497.1,765.9z M1470.5,764.4c3.6,0,7.3,0.6,10.3,2.1
		c3.3,1.2,6.1,3,8.2,5.5s3.9,5.5,5.2,9.1c1.2,3.6,1.8,7.9,1.8,12.4c0,4.5-0.6,8.8-1.8,12.4c-1.2,3.6-3,6.7-5.2,9.1
		c-2.1,2.4-4.8,4.2-7.9,5.5c-6.4,2.7-14.8,2.7-21.2,0c-3.3-1.2-6.1-3-8.2-5.5c-2.1-2.4-3.9-5.5-5.2-9.1c-1.2-3.6-1.8-7.9-1.8-12.4
		c0-4.5,0.6-8.8,1.8-12.4c1.2-3.6,3-6.7,5.2-9.1c2.4-2.4,5.1-4.2,8.2-5.5C1463.2,765,1466.5,764.4,1470.5,764.4z"/>
	<linearGradient id="SVGID_21_" gradientUnits="userSpaceOnUse" x1="634.0138" y1="1682.5229" x2="1548.0138" y2="802.5229">
		<stop  offset="0.12" style="stop-color:#D4AB00"/>
		<stop  offset="0.84" style="stop-color:#00AA9E"/>
	</linearGradient>
	<path fill="url(#SVGID_21_)" d="M1563.5,796.5c2.7-0.9,5.2-2.7,7.3-4.5c1.8-2.1,3.3-4.2,4.5-7c0.9-2.4,1.5-5.5,1.5-8.5
		c0-7-2.4-12.4-7.3-16.1c-4.5-3.6-11.2-5.5-20-5.5h-20.9v76.6h10.9v-32.1h6.4c0.6,0,1.2,0,1.5,0s0.3,0.3,0.6,0.3s0.3,0.3,0.6,0.6
		l22.7,28.5c0.6,0.9,1.2,1.8,2.1,2.1c0.9,0.3,1.8,0.6,2.7,0.6h10.3l-27-33.6C1561,797.4,1562.3,797.1,1563.5,796.5z M1566.2,777.1
		c0,2.1-0.6,3.9-1.2,5.5c-0.6,1.5-1.5,2.7-3,3.9c-1.5,1.2-3.3,2.1-5.5,2.7c-2.1,0.6-4.8,0.9-7.6,0.9h-9.4h-0.3V765h10.3
		c5.8,0,10,0.9,12.7,3C1565,770.2,1566.2,772.9,1566.2,777.1z"/>
	<linearGradient id="SVGID_22_" gradientUnits="userSpaceOnUse" x1="666.366" y1="1716.1251" x2="1580.366" y2="836.1251">
		<stop  offset="0.12" style="stop-color:#D4AB00"/>
		<stop  offset="0.84" style="stop-color:#00AA9E"/>
	</linearGradient>
	<polygon fill="url(#SVGID_22_)" points="1611.6,797.7 1642.5,797.7 1642.5,788 1611.6,788 1611.6,765 1648.9,765 1648.9,755 
		1600.7,755 1600.7,831.7 1648.9,831.7 1649.2,822 1611.6,822 	"/>
	<linearGradient id="SVGID_23_" gradientUnits="userSpaceOnUse" x1="692.3788" y1="1743.1429" x2="1606.3788" y2="863.1429">
		<stop  offset="0.12" style="stop-color:#D4AB00"/>
		<stop  offset="0.84" style="stop-color:#00AA9E"/>
	</linearGradient>
	<polygon fill="url(#SVGID_23_)" points="1661,765 1686.2,765 1686.2,831.7 1696.8,831.7 1696.8,765 1721.9,765 1721.9,755 
		1661,755 	"/>
	<linearGradient id="SVGID_24_" gradientUnits="userSpaceOnUse" x1="724.0022" y1="1775.9882" x2="1638.0022" y2="895.9882">
		<stop  offset="0.12" style="stop-color:#D4AB00"/>
		<stop  offset="0.84" style="stop-color:#00AA9E"/>
	</linearGradient>
	<rect x="1739.2" y="755" fill="url(#SVGID_24_)" width="10.9" height="76.6"/>
	<linearGradient id="SVGID_25_" gradientUnits="userSpaceOnUse" x1="753.8041" y1="1806.9415" x2="1667.8041" y2="926.9415">
		<stop  offset="0.12" style="stop-color:#D4AB00"/>
		<stop  offset="0.84" style="stop-color:#00AA9E"/>
	</linearGradient>
	<path fill="url(#SVGID_25_)" d="M1826.7,811.4l-40.9-54.5c-0.6-0.6-1.2-1.2-1.8-1.5c-0.6-0.3-1.2-0.3-2.1-0.3h-5.5v76.6h10V775
		l40.9,54.5c0.6,0.6,1.2,1.2,1.8,1.5c0.6,0.3,1.5,0.6,2.4,0.6h5.2v-76.9h-10V811.4z"/>
	<linearGradient id="SVGID_26_" gradientUnits="userSpaceOnUse" x1="800.6564" y1="1855.604" x2="1714.6564" y2="975.6039">
		<stop  offset="0.12" style="stop-color:#D4AB00"/>
		<stop  offset="0.84" style="stop-color:#00AA9E"/>
	</linearGradient>
	<path fill="url(#SVGID_26_)" d="M1888.8,755h-1.5h-3.6l-31.2,76.6h8.2c1.2,0,2.1-0.3,3-0.9c0.6-0.6,1.2-1.2,1.5-2.1l7.6-18.8h31.2
		l7.6,18.8c0.3,0.9,0.9,1.5,1.5,2.1c0.9,0.6,1.8,0.9,3,0.9h8.2l-31.8-76.6H1888.8z M1888.2,771.1l11.8,29.1h-23.3L1888.2,771.1z"/>
	<linearGradient id="SVGID_27_" gradientUnits="userSpaceOnUse" x1="828.6365" y1="1884.6652" x2="1742.6366" y2="1004.6652">
		<stop  offset="0.12" style="stop-color:#D4AB00"/>
		<stop  offset="0.84" style="stop-color:#00AA9E"/>
	</linearGradient>
	<polygon fill="url(#SVGID_27_)" points="1950.6,821.7 1950.6,755 1940,755 1940,831.7 1984.3,831.7 1984.3,821.7 	"/>
	<linearGradient id="SVGID_28_" gradientUnits="userSpaceOnUse" x1="492.4844" y1="1535.5253" x2="1406.4844" y2="655.5253">
		<stop  offset="0.12" style="stop-color:#D4AB00"/>
		<stop  offset="0.84" style="stop-color:#00AA9E"/>
	</linearGradient>
	<path fill="url(#SVGID_28_)" d="M1147.5,921.6c-1.8-1.5-3.9-2.7-6.4-3.6c-2.1-0.9-4.2-1.8-6.7-2.4c-2.1-0.6-4.2-1.5-6.4-2.1
		c-1.8-0.6-3.6-1.5-5.2-2.4c-1.5-0.9-2.4-2.1-3.3-3.3c-0.9-1.2-1.2-2.7-1.2-4.5c0-1.5,0.3-3,0.9-4.2c0.6-1.2,1.5-2.4,2.4-3.3
		c0.9-0.9,2.4-1.8,3.9-2.4c1.5-0.6,3.6-0.9,5.8-0.9c2.1,0,3.9,0.3,5.5,0.9s3,1.2,3.9,1.8c0.9,0.6,1.8,1.2,2.4,1.8
		c2.7,2.7,5.8,2.1,7.3-0.6l2.1-4.2l-1.5-1.5c-2.7-2.7-5.8-4.8-9.1-6.1c-3.3-1.2-7-1.8-10.9-1.8c-3.6,0-7,0.6-9.7,1.8
		c-2.7,0.9-5.1,2.7-7.3,4.5c-1.8,1.8-3.6,4.2-4.5,6.7c-0.9,2.4-1.5,5.1-1.5,7.9c0,3.3,0.6,6.4,1.8,8.8s2.7,4.5,4.8,6.1
		c1.8,1.5,3.9,2.7,6.4,3.6c2.1,0.9,4.2,1.8,6.7,2.4c2.1,0.6,4.2,1.5,6.4,2.1c1.8,0.6,3.6,1.5,5.2,2.4c1.5,0.9,2.4,2.1,3.3,3.3
		c0.9,0.9,1.2,2.7,1.2,4.5c0,1.8-0.3,3.6-0.9,5.5c-0.6,1.5-1.5,3-2.7,4.2c-1.2,1.2-2.7,2.4-4.5,3c-1.8,0.9-3.9,1.2-6.4,1.2
		c-1.8,0-3.3-0.3-4.8-0.6c-1.2-0.3-2.7-0.6-3.6-1.2c-0.9-0.3-1.8-0.9-2.7-1.5c-0.9-0.6-1.5-1.2-2.1-1.8l-1.8-1.5
		c-2.4-1.8-4.8-1.5-6.7,0.9l-2.4,3.9l1.5,1.5c2.7,3.3,6.1,5.8,9.7,7.6c3.6,1.8,8.2,2.7,13.3,2.7c3.9,0,7.6-0.6,9.4-2.4
		c3.3-1.2,6.1-3,8.2-5.1c2.4-2.1,3.9-4.8,5.2-7.9c1.2-3,1.8-6.1,1.8-9.4s-0.6-6.1-1.8-8.5C1151.2,925.3,1149.7,923.1,1147.5,921.6z"
		/>
	<linearGradient id="SVGID_29_" gradientUnits="userSpaceOnUse" x1="530.4609" y1="1574.9691" x2="1444.4609" y2="694.9692">
		<stop  offset="0.12" style="stop-color:#D4AB00"/>
		<stop  offset="0.84" style="stop-color:#00AA9E"/>
	</linearGradient>
	<path fill="url(#SVGID_29_)" d="M1235.1,894.1c-3.3-3.6-7.3-6.4-11.8-8.2c-4.5-1.8-9.4-2.7-14.8-2.7s-10.3,0.9-14.8,2.7
		c-4.2,1.8-8.2,4.5-11.5,7.9s-5.8,7.6-7.6,12.4c-1.8,4.5-2.7,10-2.7,15.8s0.9,10.9,2.7,15.8c1.8,4.8,4.2,9.1,7.6,12.4
		c3,3.3,7,6.1,11.5,7.9c4.5,1.8,9.4,2.7,14.8,2.7c5.5,0,10.6-0.9,14.8-2.4c4.5-1.8,8.5-4.5,11.8-7.9c3.3-3.3,5.8-7.6,7.6-12.4
		c1.8-4.5,2.7-10,2.7-15.8s-0.9-10.9-2.7-15.8S1238.4,897.4,1235.1,894.1z M1197.8,948.6c-3.3-1.2-6.1-3-8.2-5.5s-3.9-5.5-5.1-9.1
		c-1.2-3.6-1.8-7.9-1.8-12.4s0.6-8.8,1.8-12.4s3-6.7,5.1-9.1c2.4-2.4,5.2-4.2,8.2-5.5c3.3-1.5,6.7-2.1,10.6-2.1
		c3.9,0,7.6,0.6,10.3,2.1c3.3,1.2,6.1,3,8.2,5.5s3.9,5.5,5.2,9.1c1.2,3.6,1.8,7.9,1.8,12.4s-0.6,8.8-1.8,12.4
		c-1.2,3.6-3,6.7-5.2,9.1s-4.8,4.2-7.9,5.5C1212.7,951,1204.2,951.3,1197.8,948.6z"/>
	<linearGradient id="SVGID_30_" gradientUnits="userSpaceOnUse" x1="573.9207" y1="1620.108" x2="1487.9207" y2="740.108">
		<stop  offset="0.12" style="stop-color:#D4AB00"/>
		<stop  offset="0.84" style="stop-color:#00AA9E"/>
	</linearGradient>
	<path fill="url(#SVGID_30_)" d="M1319.3,942.8c-0.3,0.3-0.6,0.6-1.2,0.9c-1.2,1.2-2.7,2.1-3.9,3c-1.5,0.9-2.7,1.5-4.2,2.1
		c-1.5,0.6-3,0.9-4.8,1.2c-1.8,0.3-3.9,0.6-6.4,0.6c-3.6,0-7-0.6-10-1.8c-3.3-1.2-6.1-3-8.2-5.5c-2.4-2.4-4.2-5.5-5.5-9.1
		c-1.5-3.6-2.1-7.9-2.1-12.4s0.9-8.8,2.1-12.4s3-6.7,5.5-9.1c2.1-2.4,5.1-4.5,8.2-5.8c3-1.5,6.7-2.1,10.6-2.1c3,0,5.8,0.3,7.9,0.9
		c2.1,0.6,3.9,1.2,5.5,2.1c1.5,0.9,2.4,1.5,3.3,2.1c1.5,1.2,2.4,1.8,3.6,1.8c1.5,0,2.7-0.6,3.6-1.8l3-4.2l-1.8-1.5
		c-3-3-7-5.5-10.9-7c-3.9-1.5-8.8-2.4-13.9-2.4c-5.5,0-10.6,0.9-15.1,2.7c-4.5,2.1-8.5,4.8-11.8,8.2c-3.3,3.3-5.8,7.6-7.6,12.4
		c-1.8,4.8-2.7,10-2.7,15.8c0,6.1,0.9,11.2,2.7,16.1s4.2,9.1,7.6,12.4c3.3,3.3,7,6.1,11.5,7.9c4.2,1.8,9.4,2.7,14.5,2.7
		c3,0,5.8-0.3,8.5-0.6c2.7-0.3,5.1-1.2,7.3-2.1c2.4-1.2,4.5-2.1,6.4-3.6c1.8-1.2,3.6-2.7,5.1-4.5l1.8-1.8l-3.9-4.2
		C1322.6,942.5,1320.8,942.2,1319.3,942.8z"/>
	<linearGradient id="SVGID_31_" gradientUnits="userSpaceOnUse" x1="599.0214" y1="1646.1786" x2="1513.0214" y2="766.1785">
		<stop  offset="0.12" style="stop-color:#D4AB00"/>
		<stop  offset="0.84" style="stop-color:#00AA9E"/>
	</linearGradient>
	<rect x="1346" y="883.5" fill="url(#SVGID_31_)" width="10.9" height="76.6"/>
	<linearGradient id="SVGID_32_" gradientUnits="userSpaceOnUse" x1="625.7629" y1="1673.9532" x2="1539.7628" y2="793.9532">
		<stop  offset="0.12" style="stop-color:#D4AB00"/>
		<stop  offset="0.84" style="stop-color:#00AA9E"/>
	</linearGradient>
	<polygon fill="url(#SVGID_32_)" points="1393.8,926.2 1425,926.2 1425,916.5 1393.8,916.5 1393.8,893.1 1431.1,893.1 1431.1,883.5 
		1382.9,883.5 1382.9,960.1 1431.1,960.1 1431.4,950.1 1393.8,950.1 	"/>
	<linearGradient id="SVGID_33_" gradientUnits="userSpaceOnUse" x1="651.8486" y1="1701.0468" x2="1565.8486" y2="821.0468">
		<stop  offset="0.12" style="stop-color:#D4AB00"/>
		<stop  offset="0.84" style="stop-color:#00AA9E"/>
	</linearGradient>
	<polygon fill="url(#SVGID_33_)" points="1443.2,893.5 1468.3,893.5 1468.3,960.1 1479.3,960.1 1479.3,893.5 1504.1,893.5 
		1504.1,883.5 1443.2,883.5 	"/>
	<linearGradient id="SVGID_34_" gradientUnits="userSpaceOnUse" x1="684.7108" y1="1735.1787" x2="1598.7108" y2="855.1786">
		<stop  offset="0.12" style="stop-color:#D4AB00"/>
		<stop  offset="0.84" style="stop-color:#00AA9E"/>
	</linearGradient>
	<path fill="url(#SVGID_34_)" d="M1565.3,884.1c-0.6,0.6-1.2,1.2-1.5,1.8l-20,32.1l-20-31.8c-0.3-0.6-0.9-1.2-1.5-1.8
		c-0.6-0.6-1.5-0.9-2.7-0.9h-9.7l28.5,45.4v31.2h10.6h0.3v-31.5l28.5-45.4h-9.7C1567.1,883.2,1566.2,883.5,1565.3,884.1z"/>
</g>
</svg>
